<svg width="34" height="34" viewBox="0 0 34 34" fill="none" xmlns="http://www.w3.org/2000/svg">
<path d="M17.1732 0.215332C7.89492 0.215332 0.214844 7.76343 0.214844 17.0417C0.214844 26.3199 7.89492 34 17.1732 34C26.4514 34 33.9995 26.3199 33.9995 17.0417C33.9995 7.76344 26.4514 0.215332 17.1732 0.215332ZM26.0812 19.0213H19.1527V26.0817C19.1527 27.1731 18.2639 28.0613 17.1732 28.0613C16.0818 28.0613 15.1936 27.1731 15.1936 26.0817V19.0213H8.13313C7.04172 19.0213 6.15355 18.1331 6.15355 17.0417C6.15355 15.9503 7.04172 15.0621 8.13313 15.0621H15.1936V8.13361C15.1936 7.04221 16.0818 6.15404 17.1732 6.15404C18.2639 6.15404 19.1527 7.04221 19.1527 8.13361V15.0621H26.0812C27.172 15.0621 28.0608 15.9503 28.0608 17.0417C28.0608 18.1331 27.172 19.0213 26.0812 19.0213Z" fill="#15677F"/>
</svg>
