<svg width="150" height="44" viewBox="0 0 150 44" fill="none" xmlns="http://www.w3.org/2000/svg">
<path d="M144.444 43.9878H5.55556C2.50139 43.9878 0 41.5489 0 38.5711V6.07113C0 3.09332 2.50139 0.654463 5.55556 0.654463H144.444C147.499 0.654463 150 3.09332 150 6.07113V38.5711C150 41.5489 147.499 43.9878 144.444 43.9878Z" fill="white"/>
<path d="M144.444 1.52248C147.017 1.52248 149.11 3.56321 149.11 6.07113V38.5711C149.11 41.079 147.017 43.1198 144.444 43.1198H5.55556C2.98333 43.1198 0.890277 41.079 0.890277 38.5711V6.07113C0.890277 3.56321 2.98333 1.52248 5.55556 1.52248H144.444ZM144.444 0.654463H5.55556C2.50139 0.654463 0 3.09332 0 6.07113V38.5711C0 41.5489 2.50139 43.9878 5.55556 43.9878H144.444C147.499 43.9878 150 41.5489 150 38.5711V6.07113C150 3.09332 147.499 0.654463 144.444 0.654463Z" fill="#A6A6A6"/>
<path d="M11.5944 8.82101C11.268 9.15414 11.0791 9.67278 11.0791 10.3444V34.3024C11.0791 34.974 11.268 35.4927 11.5944 35.8258L11.6749 35.8989L25.4444 22.4791V22.1623L11.6749 8.74247L11.5944 8.82101Z" fill="url(#paint0_linear_1141_1522)"/>
<path d="M30.0291 26.9551L25.4443 22.4796V22.1627L30.0346 17.6872L30.1374 17.7454L35.5735 20.7611C37.1249 21.617 37.1249 23.0253 35.5735 23.8865L30.1374 26.8968L30.0291 26.9551Z" fill="url(#paint1_linear_1141_1522)"/>
<path d="M30.1378 26.8966L25.4447 22.3209L11.5947 35.826C12.11 36.3541 12.9503 36.4178 13.9058 35.8897L30.1378 26.8966Z" fill="url(#paint2_linear_1141_1522)"/>
<path d="M30.1378 17.7451L13.9058 8.75206C12.9503 8.22935 12.11 8.29299 11.5947 8.82112L25.4447 22.3208L30.1378 17.7451Z" fill="url(#paint3_linear_1141_1522)"/>
<path d="M52.6862 11.7521C52.6862 12.6567 52.4084 13.3812 51.8612 13.9215C51.232 14.562 50.4125 14.8843 49.4084 14.8843C48.4487 14.8843 47.6292 14.5566 46.957 13.9106C46.2834 13.2552 45.9473 12.4509 45.9473 11.488C45.9473 10.5252 46.2834 9.72086 46.957 9.07086C47.6292 8.41951 48.4487 8.0918 49.4084 8.0918C49.8862 8.0918 50.3417 8.18794 50.7764 8.36669C51.2098 8.5468 51.5625 8.79055 51.8181 9.09117L51.2375 9.66263C50.7917 9.1494 50.1848 8.89617 49.4084 8.89617C48.7084 8.89617 48.1014 9.1345 47.5862 9.61523C47.0764 10.0973 46.8209 10.7216 46.8209 11.488C46.8209 12.2545 47.0764 12.8842 47.5862 13.3663C48.1014 13.8416 48.7084 14.0853 49.4084 14.0853C50.1514 14.0853 50.7764 13.8416 51.2695 13.3609C51.5945 13.0426 51.7792 12.6039 51.8278 12.0433H49.4084V11.2605H52.6362C52.675 11.4298 52.6862 11.5937 52.6862 11.7521Z" fill="black" stroke="black" stroke-width="0.16" stroke-miterlimit="10"/>
<path d="M57.8073 9.03833H54.7753V11.0967H57.5087V11.8794H54.7753V13.9377H57.8073V14.7353H53.917V8.24072H57.8073V9.03833Z" fill="black" stroke="black" stroke-width="0.16" stroke-miterlimit="10"/>
<path d="M61.4212 14.7353H60.5628V9.03833H58.7031V8.24072H63.2823V9.03833H61.4212V14.7353Z" fill="black" stroke="black" stroke-width="0.16" stroke-miterlimit="10"/>
<path d="M66.5957 14.7353V8.24072H67.4527V14.7353H66.5957Z" fill="black" stroke="black" stroke-width="0.16" stroke-miterlimit="10"/>
<path d="M71.2512 14.7353H70.3999V9.03833H68.5332V8.24072H73.1179V9.03833H71.2512V14.7353Z" fill="black" stroke="black" stroke-width="0.16" stroke-miterlimit="10"/>
<path d="M81.7878 13.8998C81.1309 14.5566 80.317 14.8843 79.3462 14.8843C78.3698 14.8843 77.5559 14.5566 76.8989 13.8998C76.2434 13.2444 75.917 12.44 75.917 11.488C75.917 10.5361 76.2434 9.73169 76.8989 9.07628C77.5559 8.41951 78.3698 8.0918 79.3462 8.0918C80.3114 8.0918 81.1253 8.41951 81.7823 9.08169C82.4434 9.74253 82.7698 10.5415 82.7698 11.488C82.7698 12.44 82.4434 13.2444 81.7878 13.8998ZM77.5337 13.3554C78.0281 13.8416 78.6295 14.0853 79.3462 14.0853C80.0573 14.0853 80.6642 13.8416 81.1531 13.3554C81.6462 12.8693 81.8962 12.245 81.8962 11.488C81.8962 10.7311 81.6462 10.1068 81.1531 9.62065C80.6642 9.13451 80.0573 8.89076 79.3462 8.89076C78.6295 8.89076 78.0281 9.13451 77.5337 9.62065C77.0406 10.1068 76.7906 10.7311 76.7906 11.488C76.7906 12.245 77.0406 12.8693 77.5337 13.3554Z" fill="black" stroke="black" stroke-width="0.16" stroke-miterlimit="10"/>
<path d="M83.9736 14.7353V8.24072H85.0153L88.2542 13.2918H88.2917L88.2542 12.0432V8.24072H89.1111V14.7353H88.2167L84.825 9.4351H84.7875L84.825 10.6891V14.7353H83.9736Z" fill="black" stroke="black" stroke-width="0.16" stroke-miterlimit="10"/>
<path d="M75.7052 24.2197C73.0954 24.2197 70.9635 26.1562 70.9635 28.8279C70.9635 31.478 73.0954 33.4348 75.7052 33.4348C78.3204 33.4348 80.4524 31.478 80.4524 28.8279C80.4524 26.1562 78.3204 24.2197 75.7052 24.2197ZM75.7052 31.6202C74.2732 31.6202 73.0413 30.4678 73.0413 28.8279C73.0413 27.1664 74.2732 26.0343 75.7052 26.0343C77.1371 26.0343 78.3746 27.1664 78.3746 28.8279C78.3746 30.4678 77.1371 31.6202 75.7052 31.6202ZM65.3593 24.2197C62.744 24.2197 60.6177 26.1562 60.6177 28.8279C60.6177 31.478 62.744 33.4348 65.3593 33.4348C67.9732 33.4348 70.101 31.478 70.101 28.8279C70.101 26.1562 67.9732 24.2197 65.3593 24.2197ZM65.3593 31.6202C63.926 31.6202 62.6899 30.4678 62.6899 28.8279C62.6899 27.1664 63.926 26.0343 65.3593 26.0343C66.7913 26.0343 68.0232 27.1664 68.0232 28.8279C68.0232 30.4678 66.7913 31.6202 65.3593 31.6202ZM53.0482 25.6321V27.5902H57.844C57.7038 28.6844 57.3288 29.4888 56.7538 30.0494C56.0538 30.7265 54.9635 31.478 53.0482 31.478C50.0968 31.478 47.7857 29.1556 47.7857 26.278C47.7857 23.4004 50.0968 21.078 53.0482 21.078C54.644 21.078 55.8052 21.6861 56.6621 22.4742L58.0774 21.0943C56.8788 19.9784 55.2843 19.1213 53.0482 19.1213C49.001 19.1213 45.5996 22.332 45.5996 26.278C45.5996 30.2241 49.001 33.4348 53.0482 33.4348C55.2357 33.4348 56.8788 32.736 58.1704 31.4252C59.494 30.1347 59.9065 28.3201 59.9065 26.8549C59.9065 26.3999 59.8677 25.9815 59.7982 25.6321H53.0482ZM103.39 27.1501C103 26.1196 101.795 24.2197 99.3426 24.2197C96.9121 24.2197 94.8885 26.0871 94.8885 28.8279C94.8885 31.409 96.8913 33.4348 99.576 33.4348C101.747 33.4348 103 32.1443 103.515 31.3927L101.904 30.3459C101.366 31.1124 100.634 31.6202 99.576 31.6202C98.5246 31.6202 97.7704 31.1503 97.2871 30.2241L103.608 27.6742L103.39 27.1501ZM96.9454 28.6844C96.8913 26.9077 98.3607 25.9977 99.4135 25.9977C100.238 25.9977 100.938 26.3999 101.172 26.9754L96.9454 28.6844ZM91.8079 33.1545H93.8857V19.6128H91.8079V33.1545ZM88.4051 25.2462H88.3357C87.869 24.7072 86.9788 24.2197 85.851 24.2197C83.4843 24.2197 81.3204 26.2455 81.3204 28.8428C81.3204 31.4252 83.4843 33.4348 85.851 33.4348C86.9788 33.4348 87.869 32.9432 88.3357 32.388H88.4051V33.0489C88.4051 34.8106 87.4399 35.7572 85.8829 35.7572C84.6135 35.7572 83.826 34.8634 83.501 34.1119L81.694 34.8472C82.2149 36.0687 83.594 37.5718 85.8829 37.5718C88.319 37.5718 90.3746 36.1743 90.3746 32.774V24.5H88.4051V25.2462ZM86.0288 31.6202C84.5968 31.6202 83.3982 30.4516 83.3982 28.8428C83.3982 27.2192 84.5968 26.0343 86.0288 26.0343C87.4399 26.0343 88.5524 27.2192 88.5524 28.8428C88.5524 30.4516 87.4399 31.6202 86.0288 31.6202ZM113.118 19.6128H108.148V33.1545H110.22V28.0236H113.118C115.419 28.0236 117.676 26.3999 117.676 23.8175C117.676 21.2365 115.413 19.6128 113.118 19.6128ZM113.172 26.1399H110.22V21.4965H113.172C114.719 21.4965 115.602 22.7491 115.602 23.8175C115.602 24.8656 114.719 26.1399 113.172 26.1399ZM125.982 24.194C124.484 24.194 122.927 24.8386 122.287 26.2672L124.126 27.0188C124.522 26.2672 125.25 26.0234 126.019 26.0234C127.094 26.0234 128.184 26.6531 128.201 27.7649V27.9071C127.826 27.6958 127.023 27.383 126.036 27.383C124.055 27.383 122.037 28.4461 122.037 30.4299C122.037 32.2445 123.659 33.4131 125.483 33.4131C126.877 33.4131 127.647 32.7997 128.13 32.0861H128.201V33.1328H130.202V27.9382C130.202 25.5373 128.363 24.194 125.982 24.194ZM125.732 31.6148C125.054 31.6148 124.109 31.2871 124.109 30.4678C124.109 29.4197 125.287 29.0175 126.307 29.0175C127.219 29.0175 127.647 29.2139 128.201 29.4725C128.038 30.7265 126.932 31.6148 125.732 31.6148ZM137.494 24.4905L135.112 30.3608H135.041L132.579 24.4905H130.344L134.044 32.6941L131.933 37.259H134.098L139.8 24.4905H137.494ZM118.815 33.1545H120.893V19.6128H118.815V33.1545Z" fill="black"/>
<defs>
<linearGradient id="paint0_linear_1141_1522" x1="24.2218" y1="34.5519" x2="6.04671" y2="15.9107" gradientUnits="userSpaceOnUse">
<stop stop-color="#00A0FF"/>
<stop offset="0.0066" stop-color="#00A1FF"/>
<stop offset="0.2601" stop-color="#00BEFF"/>
<stop offset="0.5122" stop-color="#00D2FF"/>
<stop offset="0.7604" stop-color="#00DFFF"/>
<stop offset="1" stop-color="#00E3FF"/>
</linearGradient>
<linearGradient id="paint1_linear_1141_1522" x1="37.5937" y1="22.3196" x2="10.7082" y2="22.3196" gradientUnits="userSpaceOnUse">
<stop stop-color="#FFE000"/>
<stop offset="0.4087" stop-color="#FFBD00"/>
<stop offset="0.7754" stop-color="#FFA500"/>
<stop offset="1" stop-color="#FF9C00"/>
</linearGradient>
<linearGradient id="paint2_linear_1141_1522" x1="27.5858" y1="19.8335" x2="2.93891" y2="-5.44542" gradientUnits="userSpaceOnUse">
<stop stop-color="#FF3A44"/>
<stop offset="1" stop-color="#C31162"/>
</linearGradient>
<linearGradient id="paint3_linear_1141_1522" x1="8.10839" y1="43.7966" x2="19.1143" y2="32.5085" gradientUnits="userSpaceOnUse">
<stop stop-color="#32A071"/>
<stop offset="0.0685" stop-color="#2DA771"/>
<stop offset="0.4762" stop-color="#15CF74"/>
<stop offset="0.8009" stop-color="#06E775"/>
<stop offset="1" stop-color="#00F076"/>
</linearGradient>
</defs>
</svg>
