<svg id="checkmark-red" xmlns="http://www.w3.org/2000/svg" width="16" height="14.106" viewBox="0 0 16 14.106">
  <path id="Path_14" data-name="Path 14" d="M7.353,14.114A7.216,7.216,0,0,1,0,7.061,7.216,7.216,0,0,1,7.353.008,7.558,7.558,0,0,1,11.32,1.123a.47.47,0,0,1,.151.665.514.514,0,0,1-.693.145A6.52,6.52,0,0,0,7.353.97,6.232,6.232,0,0,0,1,7.061a6.232,6.232,0,0,0,6.351,6.091A6.232,6.232,0,0,0,13.7,7.061c0-.2-.01-.4-.029-.595a.487.487,0,0,1,.451-.525.5.5,0,0,1,.548.432q.034.34.034.688A7.216,7.216,0,0,1,7.353,14.114Zm0,0" transform="translate(0 -0.008)" fill="#ff5656"/>
  <path id="Path_15" data-name="Path 15" d="M152.734,29.429a.481.481,0,0,1-.343-.142l-2.909-2.909a.485.485,0,0,1,.686-.686l2.567,2.567L159.5,21.49a.485.485,0,1,1,.686.686l-7.111,7.111A.486.486,0,0,1,152.734,29.429Zm0,0" transform="translate(-144.331 -20.701)" fill="#ff5656"/>
</svg>
