<svg width="26" height="26" viewBox="0 0 26 26" fill="none" xmlns="http://www.w3.org/2000/svg">
<path d="M2.40799 25.097C1.7852 25.1332 1.17272 24.9261 0.699685 24.5195C-0.233228 23.581 -0.233228 22.0654 0.699685 21.1269L21.1274 0.69907C22.0977 -0.208884 23.6203 -0.158412 24.5283 0.811901C25.3493 1.68935 25.3972 3.03801 24.6403 3.9714L4.09221 24.5195C3.62528 24.9203 3.02262 25.1269 2.40799 25.097Z" fill="#FAFBFC"/>
<path d="M22.8118 25.0968C22.1806 25.0941 21.5756 24.8436 21.1275 24.3991L0.699652 3.97118C-0.164644 2.96188 -0.0471384 1.44295 0.962157 0.578574C1.86298 -0.192858 3.19151 -0.192858 4.09226 0.578574L24.6404 21.0064C25.6104 21.9146 25.6606 23.4373 24.7524 24.4073C24.7163 24.4459 24.6789 24.4832 24.6404 24.5194C24.1372 24.9569 23.475 25.166 22.8118 25.0968Z" fill="#FAFBFC"/>
</svg>
