<svg xmlns="http://www.w3.org/2000/svg"
 width="512.000000pt" height="512.000000pt" viewBox="0 0 512.000000 512.000000"
 preserveAspectRatio="xMidYMid meet">

<g transform="translate(0.000000,512.000000) scale(0.100000,-0.100000)"
fill="#000000" stroke="none">
<path d="M1112 4900 c-177 -47 -321 -166 -400 -332 l-37 -77 -150 -2 c-82 0
-204 -4 -271 -7 -111 -6 -124 -9 -162 -36 -83 -57 -102 -154 -47 -238 47 -70
57 -73 361 -76 l271 -4 17 -36 c96 -201 251 -329 451 -369 67 -13 95 -14 177
-5 218 26 384 144 477 340 l35 72 1386 0 c763 0 1476 3 1584 7 226 7 243 13
284 93 45 87 11 184 -79 231 -40 20 -52 20 -1610 26 -1214 5 -1569 9 -1569 18
0 7 -16 44 -35 82 -123 246 -420 382 -683 313z m226 -220 c116 -27 203 -98
255 -208 29 -60 32 -77 32 -157 0 -77 -4 -98 -27 -147 -73 -157 -201 -236
-364 -226 -92 6 -165 40 -235 109 -62 61 -93 119 -108 205 -46 252 196 481
447 424z"/>
<path d="M3521 3134 c-149 -40 -304 -173 -379 -326 l-43 -88 -1476 0 -1476 0
-43 -25 c-45 -27 -94 -106 -94 -154 0 -39 38 -108 78 -141 l37 -30 591 0 c325
0 997 -3 1493 -7 l902 -6 39 -78 c68 -135 190 -243 335 -299 82 -31 242 -39
339 -16 163 38 326 168 399 317 l37 76 354 5 c401 6 403 6 463 86 25 33 33 54
33 86 0 50 -35 122 -72 150 -41 30 -104 34 -449 35 l-315 1 -44 88 c-79 156
-233 287 -385 327 -75 19 -251 19 -324 -1z m324 -245 c64 -32 145 -113 178
-180 24 -47 27 -64 27 -158 0 -95 -3 -111 -27 -159 -34 -67 -104 -138 -174
-177 -51 -28 -61 -30 -164 -30 -102 0 -114 2 -162 29 -111 61 -184 164 -206
289 -26 155 63 314 222 395 41 20 57 22 151 19 87 -3 114 -8 155 -28z"/>
<path d="M1825 1380 c-184 -40 -343 -165 -426 -335 l-40 -84 -608 -3 -607 -3
-43 -28 c-116 -77 -118 -233 -2 -294 l44 -23 608 0 609 0 31 -62 c91 -182 226
-299 394 -343 92 -24 264 -20 346 8 149 51 280 166 357 314 l43 83 1237 2
1237 3 37 28 c37 29 68 88 68 133 0 58 -47 130 -105 162 -27 16 -137 17 -1252
20 l-1223 3 -47 92 c-109 210 -284 324 -513 332 -58 2 -123 0 -145 -5z m224
-235 c99 -26 183 -100 242 -215 19 -38 23 -61 23 -141 1 -89 -1 -100 -33 -163
-81 -158 -254 -243 -416 -203 -218 54 -340 265 -276 476 18 59 32 82 82 136
83 88 157 125 253 125 39 0 95 -7 125 -15z"/>
</g>
</svg>
