<svg xmlns="http://www.w3.org/2000/svg" xmlns:xlink="http://www.w3.org/1999/xlink" width="14" height="14" viewBox="0 0 14 14">
  <defs>
    <clipPath id="employees">
      <rect id="Rectangle_543" data-name="Rectangle 543" width="14" height="14" transform="translate(1275 2721)" fill="#448599" stroke="#707070" stroke-width="1"/>
    </clipPath>
  </defs>
  <g id="employees" data-name="Mask Group 64" transform="translate(-1275 -2721)" clip-path="url(#clip-path)">
    <path id="user_2_" data-name="user (2)" d="M14,7a6.984,6.984,0,0,1-.4,2.333.547.547,0,0,1-.937.167L10.881,7.349a.547.547,0,0,1,.842-.7l1.1,1.329A5.907,5.907,0,1,0,1.094,7a5.943,5.943,0,0,0,.081.98l1.1-1.329a.547.547,0,0,1,.842.7L1.335,9.5A.547.547,0,0,1,.4,9.333,7,7,0,1,1,14,7Zm-1.783,4.667a7,7,0,0,1-10.434,0,.547.547,0,0,1,.006-.736A7.013,7.013,0,0,1,5.065,8.878a2.7,2.7,0,1,1,3.87,0,7.012,7.012,0,0,1,3.276,2.053A.547.547,0,0,1,12.217,11.667ZM7,8.6A1.6,1.6,0,1,0,5.4,7,1.606,1.606,0,0,0,7,8.6Zm4.047,2.7a5.9,5.9,0,0,0-8.092,0A5.908,5.908,0,0,0,11.046,11.3Zm0,0" transform="translate(1275 2721)" fill="#448599"/>
  </g>
</svg>
