<svg xmlns="http://www.w3.org/2000/svg"
 width="512.000000pt" height="512.000000pt" viewBox="0 0 512.000000 512.000000"
 preserveAspectRatio="xMidYMid meet">

<g transform="translate(0.000000,512.000000) scale(0.100000,-0.100000)"
fill="#000000" stroke="none">
<path d="M2989 4907 c-149 -51 -280 -166 -357 -314 l-43 -83 -1237 -2 -1237
-3 -37 -28 c-37 -29 -68 -88 -68 -133 0 -58 47 -130 105 -162 27 -16 137 -17
1252 -20 l1223 -3 47 -92 c79 -153 201 -259 363 -313 78 -26 273 -26 350 0
100 34 173 79 251 156 61 60 85 93 118 162 l42 87 608 3 607 3 43 28 c116 77
118 233 2 294 l-44 23 -608 0 -609 0 -31 63 c-91 181 -226 298 -394 342 -92
24 -264 20 -346 -8z m276 -212 c210 -55 329 -267 266 -474 -18 -59 -32 -82
-82 -136 -83 -88 -157 -125 -253 -125 -172 0 -285 72 -367 230 -19 38 -23 61
-23 141 -1 89 1 100 33 163 53 103 137 171 251 202 62 17 105 17 175 -1z"/>
<path d="M1286 3155 c-155 -39 -318 -171 -389 -316 l-37 -76 -354 -5 c-401 -6
-403 -6 -463 -86 -25 -33 -33 -54 -33 -86 0 -50 35 -122 72 -150 41 -30 104
-34 449 -35 l315 -1 44 -87 c79 -157 233 -288 385 -328 77 -20 243 -20 320 0
152 40 307 172 383 328 l43 87 1476 0 1476 0 43 25 c45 27 94 106 94 154 0 39
-38 108 -78 141 l-37 30 -591 0 c-325 0 -997 3 -1493 7 l-902 6 -39 78 c-68
135 -189 243 -335 299 -77 30 -259 37 -349 15z m311 -249 c110 -61 184 -164
206 -289 27 -161 -79 -338 -241 -402 -64 -26 -220 -17 -287 16 -64 32 -145
113 -178 180 -24 47 -27 64 -27 159 0 95 3 112 25 154 37 70 74 112 131 152
79 55 116 65 224 61 82 -2 102 -7 147 -31z"/>
<path d="M3765 1399 c-188 -26 -357 -155 -444 -337 l-35 -72 -1386 0 c-763 0
-1476 -3 -1584 -7 -226 -7 -243 -13 -284 -93 -45 -87 -11 -184 79 -231 40 -20
52 -20 1610 -26 1214 -5 1569 -9 1569 -18 0 -7 16 -44 35 -82 128 -257 442
-390 715 -304 166 52 326 200 386 357 l17 44 151 1 c83 0 205 4 272 7 111 6
124 9 162 36 83 57 102 154 47 238 -47 70 -57 73 -361 76 l-271 4 -17 36 c-70
146 -165 249 -289 311 -126 64 -230 80 -372 60z m246 -251 c68 -31 157 -117
186 -179 12 -25 26 -72 32 -104 45 -241 -181 -470 -421 -428 -132 22 -225 92
-281 211 -29 60 -32 77 -32 157 0 77 4 98 27 147 73 156 190 231 353 225 60
-2 94 -10 136 -29z"/>
</g>
</svg>
