<svg width="16" height="16" viewBox="0 0 16 16" fill="none" xmlns="http://www.w3.org/2000/svg">
<path d="M14.271 0.5H2.396C1.98175 0.500496 1.58461 0.665276 1.29169 0.958194C0.998772 1.25111 0.833992 1.64825 0.833496 2.0625L0.833496 13.9375C0.833496 14.7987 1.53475 15.5 2.396 15.5H9.271C9.35388 15.5 9.43336 15.4671 9.49197 15.4085C9.55057 15.3499 9.5835 15.2704 9.5835 15.1875V9.5625C9.5835 9.47962 9.55057 9.40013 9.49197 9.34153C9.43336 9.28292 9.35388 9.25 9.271 9.25H7.7085V8H9.271C9.35388 8 9.43336 7.96708 9.49197 7.90847C9.55057 7.84987 9.5835 7.77038 9.5835 7.6875V5.8125C9.5835 4.26188 10.8454 3 12.396 3H13.3335V4.25H12.396C11.9817 4.2505 11.5846 4.41528 11.2917 4.70819C10.9988 5.00111 10.834 5.39825 10.8335 5.8125V7.6875C10.8335 7.77038 10.8664 7.84987 10.925 7.90847C10.9836 7.96708 11.0631 8 11.146 8H13.2122L12.7954 9.25H11.146C11.0631 9.25 10.9836 9.28292 10.925 9.34153C10.8664 9.40013 10.8335 9.47962 10.8335 9.5625V15.1875C10.8335 15.2704 10.8664 15.3499 10.925 15.4085C10.9836 15.4671 11.0631 15.5 11.146 15.5H14.271C15.1322 15.5 15.8335 14.7987 15.8335 13.9375V2.0625C15.8335 1.20125 15.1322 0.5 14.271 0.5Z" fill="white"/>
</svg>
