<svg xmlns="http://www.w3.org/2000/svg" xmlns:xlink="http://www.w3.org/1999/xlink" width="20" height="20" viewBox="0 0 20 20">
  <defs>
    <clipPath id="global">
      <rect id="Rectangle_32" data-name="Rectangle 32" width="20" height="20" transform="translate(1443 989)" fill="#15677f"/>
    </clipPath>
  </defs>
  <g id="global" data-name="Mask Group 43" transform="translate(-1443 -989)" clip-path="url(#clip-path)">
    <g id="earth-globe" transform="translate(1443 989)">
      <g id="Group_337" data-name="Group 337">
        <path id="Path_99" data-name="Path 99" d="M20,2.917a2.909,2.909,0,0,0-5.259-1.722A10,10,0,0,0,1.194,14.74a2.909,2.909,0,1,0,4.065,4.065A10,10,0,0,0,18.805,5.26,2.906,2.906,0,0,0,20,2.917ZM10,1.667a8.286,8.286,0,0,1,3.746.9A12.523,12.523,0,0,0,2.564,13.746,8.322,8.322,0,0,1,10,1.667ZM2.917,18.333a1.25,1.25,0,1,1,1.25-1.25A1.25,1.25,0,0,1,2.917,18.333Zm9.151-.269A8.215,8.215,0,0,1,5.822,17.2c0-.041.011-.078.011-.119a2.908,2.908,0,0,0-1.64-2.61A10.83,10.83,0,0,1,14.473,4.194a2.909,2.909,0,0,0,2.61,1.64c.041,0,.078-.01.119-.012a8.246,8.246,0,0,1,.963,2.512h-6.5a3.333,3.333,0,0,0-2.354,5.69l2.357,2.357A1.662,1.662,0,0,1,12.068,18.064ZM13.8,17.41a3.28,3.28,0,0,0-.958-2.207l-2.357-2.358A1.667,1.667,0,0,1,11.665,10h6.668A8.327,8.327,0,0,1,13.8,17.41ZM17.083,4.167a1.25,1.25,0,1,1,1.25-1.25A1.25,1.25,0,0,1,17.083,4.167Z" fill="#15677f"/>
      </g>
    </g>
  </g>
</svg>
