<svg xmlns="http://www.w3.org/2000/svg" width="43.045" height="20.045" viewBox="0 0 43.045 20.045">
  <g id="Group_9030" data-name="Group 9030" transform="translate(-536 -598)">
    <path id="ic_group_24px" d="M11.023,13.591a4.3,4.3,0,1,0-4.3-4.3A4.278,4.278,0,0,0,11.023,13.591Zm0,2.864C7.687,16.455,1,18.13,1,21.466v3.58H21.045v-3.58C21.045,18.13,14.359,16.455,11.023,16.455Z" transform="translate(535 593)" fill="#292725" opacity="0.35"/>
    <path id="ic_group_24px-2" data-name="ic_group_24px" d="M11.023,13.591a4.3,4.3,0,1,0-4.3-4.3A4.278,4.278,0,0,0,11.023,13.591Zm0,2.864C7.687,16.455,1,18.13,1,21.466v3.58H21.045v-3.58C21.045,18.13,14.359,16.455,11.023,16.455Z" transform="translate(545 593)" fill="#292725" opacity="0.77"/>
    <path id="ic_group_24px-3" data-name="ic_group_24px" d="M11.023,13.591a4.3,4.3,0,1,0-4.3-4.3A4.278,4.278,0,0,0,11.023,13.591Zm0,2.864C7.687,16.455,1,18.13,1,21.466v3.58H21.045v-3.58C21.045,18.13,14.359,16.455,11.023,16.455Z" transform="translate(558 593)" fill="#292725"/>
  </g>
</svg>
