<svg xmlns="http://www.w3.org/2000/svg" width="29" height="38" viewBox="0 0 29 38">
  <path id="Icon_awesome-hourglass-half" data-name="Icon awesome-hourglass-half" d="M27.188,0H1.813A1.8,1.8,0,0,0,0,1.781V2.969A1.8,1.8,0,0,0,1.813,4.75C1.813,11.5,5.665,17.2,10.939,19c-5.273,1.8-9.126,7.5-9.126,14.25A1.8,1.8,0,0,0,0,35.031v1.188A1.8,1.8,0,0,0,1.813,38H27.188A1.8,1.8,0,0,0,29,36.219V35.031a1.8,1.8,0,0,0-1.812-1.781c0-6.751-3.853-12.449-9.126-14.25,5.273-1.8,9.126-7.5,9.126-14.25A1.8,1.8,0,0,0,29,2.969V1.781A1.8,1.8,0,0,0,27.188,0Zm-5.67,28.5H7.483c1.288-3.473,3.934-5.937,7.017-5.937S20.229,25.026,21.518,28.5Zm0-19H7.482a13.709,13.709,0,0,1-.837-4.75H22.354a13.711,13.711,0,0,1-.835,4.75Z" fill="#f5ac39"/>
</svg>
