<svg width="31" height="30" viewBox="0 0 31 30" fill="none" xmlns="http://www.w3.org/2000/svg">
<path d="M30.8545 4.68744C24.6742 4.68744 19.9397 3.22488 15.9359 0C11.9327 3.22488 7.19831 4.68744 1.01861 4.68744C1.01861 13.0849 -1.07924 25.115 15.9359 30C32.9522 25.1149 30.8545 13.0849 30.8545 4.68744Z" fill="#15677F"/>
<path d="M20.5305 17.49C20.5305 19.416 19.2525 20.73 17.2005 21.018V23.034H15.3105V21.018C13.9965 20.82 12.7545 20.226 11.6925 19.182L13.1685 17.418C14.1765 18.372 15.4005 18.804 16.3725 18.804C17.2725 18.804 17.8665 18.372 17.8665 17.67C17.8665 16.896 17.2905 16.536 15.8145 16.104C13.7805 15.474 11.9805 14.79 11.9805 12.504C11.9805 10.668 13.1865 9.282 15.3105 9.03V6.906H17.2005V9.138C18.3165 9.372 19.4505 9.894 20.2605 10.542L18.8385 12.324C17.8305 11.622 16.8585 11.316 16.0665 11.316C15.1485 11.316 14.6265 11.694 14.6265 12.342C14.6265 13.008 15.2385 13.35 16.5345 13.764C18.9465 14.484 20.5305 15.114 20.5305 17.49Z" fill="white"/>
</svg>
