<svg width="47" height="46" viewBox="0 0 47 46" fill="none" xmlns="http://www.w3.org/2000/svg">
<path d="M40.4879 0H6.28795C3.05091 0 0.41748 2.63352 0.41748 5.87056V40.0704C0.41748 43.3073 3.05091 45.9409 6.28795 45.9409H40.4879C43.7249 45.9409 46.3583 43.3073 46.3583 40.0703V5.87056C46.3583 2.63352 43.7249 0 40.4879 0ZM43.6523 40.0704C43.6523 41.8153 42.2327 43.2348 40.4879 43.2348H6.28795C4.54301 43.2348 3.12342 41.8152 3.12342 40.0704V35.1347L12.0294 27.5571C12.3544 27.2805 12.8285 27.2779 13.1566 27.5503L18.7353 32.1828C19.2732 32.6294 20.0628 32.5928 20.5572 32.0979L33.8126 18.8223C34.0522 18.5823 34.3315 18.5589 34.4773 18.5664C34.6227 18.5738 34.8986 18.6257 35.1124 18.889L43.6524 29.4043L43.6523 40.0704ZM43.6523 25.1118L37.2129 17.1829C36.5743 16.3965 35.6277 15.9157 34.616 15.8638C33.6049 15.8126 32.6135 16.1933 31.8977 16.9102L19.5145 29.3125L14.8854 25.4686C13.5432 24.354 11.6047 24.3656 10.2758 25.4963L3.12342 31.5818V5.87056C3.12342 4.12561 4.54301 2.70602 6.28795 2.70602H40.4879C42.2328 2.70602 43.6523 4.12561 43.6523 5.87056V25.1118Z" fill="black"/>
</svg>
