<svg width="25" height="26" viewBox="0 0 25 26" fill="none" xmlns="http://www.w3.org/2000/svg">
<path d="M5.30006 10.8398H1.56863C0.858968 10.8416 0.284654 11.4175 0.284851 12.1272V24.2525C0.284655 24.9622 0.858969 25.5381 1.56863 25.5398H5.30006C6.01038 25.5383 6.58582 24.9629 6.58737 24.2525V12.1272C6.58582 11.4168 6.01038 10.8414 5.30006 10.8398Z" fill="#DBDBDB"/>
<path d="M23.474 15.0607C23.474 14.4792 23.2433 13.9211 22.8324 13.5091C22.7973 13.471 22.7595 13.4356 22.7193 13.403C23.6576 13.0054 24.1865 12.0025 23.9847 11.0036C23.7829 10.0047 22.906 9.28579 21.887 9.28366H14.2336C14.276 9.2096 14.3148 9.14258 14.35 9.07557C14.5703 8.72004 14.7456 8.33858 14.872 7.93992C15.0407 7.38729 15.1437 6.81671 15.1788 6.23997C15.2775 4.55661 14.6925 2.90468 13.5565 1.65856C13.1284 1.17234 12.5213 0.880844 11.8742 0.850908C10.9667 0.816066 10.1857 1.48638 10.0825 2.38862C10.0796 2.40491 10.0784 2.42146 10.079 2.438V5.52754L8.0334 10.712C7.86588 11.1337 7.61383 11.5166 7.29276 11.8371V23.7862C7.7977 23.9252 8.31143 24.0301 8.83047 24.1001C9.02338 24.1258 9.21778 24.1388 9.41241 24.1388H19.7849C20.2976 24.1382 20.7893 23.9354 21.1534 23.5745C21.5153 23.2126 21.7183 22.7215 21.7177 22.2096C21.7189 21.7419 21.5482 21.2901 21.238 20.94C22.0717 20.7647 22.7311 20.127 22.9342 19.2997C23.1373 18.4723 22.8481 17.6018 22.1903 17.0604C22.9719 16.7017 23.4733 15.9207 23.474 15.0607Z" fill="#DBDBDB"/>
</svg>
