<svg width="25" height="25" viewBox="0 0 25 25" fill="none" xmlns="http://www.w3.org/2000/svg">
<path d="M19.3534 14.8704H23.1085C23.8226 14.8686 24.4006 14.2891 24.4004 13.5749V1.37263C24.4006 0.658466 23.8226 0.0789223 23.1085 0.0771637H19.3534C18.6386 0.0787201 18.0595 0.657814 18.0579 1.37263V13.5749C18.0595 14.2897 18.6386 14.8688 19.3534 14.8704Z" fill="#DBDBDB"/>
<path d="M1.06379 10.6219C1.06378 11.2071 1.296 11.7688 1.7095 12.1834C1.74478 12.2217 1.78282 12.2573 1.82332 12.2901C0.879086 12.6902 0.346798 13.6995 0.549908 14.7047C0.75301 15.71 1.63542 16.4334 2.66094 16.4356H10.3628C10.3202 16.5101 10.2811 16.5775 10.2456 16.645C10.024 17.0028 9.84757 17.3866 9.72036 17.7878C9.55058 18.344 9.44694 18.9182 9.41158 19.4986C9.31227 21.1926 9.90096 22.855 11.0442 24.109C11.475 24.5983 12.086 24.8917 12.7372 24.9218C13.6504 24.9569 14.4364 24.2823 14.5402 23.3743C14.5432 23.3579 14.5443 23.3413 14.5438 23.3246V20.2155L16.6023 14.9981C16.7709 14.5738 17.0245 14.1885 17.3477 13.8659V1.84114C16.8395 1.7012 16.3225 1.59566 15.8002 1.52526C15.6061 1.4993 15.4104 1.48625 15.2146 1.48622H4.77628C4.2604 1.48689 3.76558 1.69094 3.39917 2.05409C3.03498 2.41836 2.83067 2.91255 2.8313 3.42764C2.83006 3.89834 3.00185 4.35307 3.31399 4.70537C2.47501 4.88173 1.81141 5.52347 1.60704 6.35607C1.40268 7.18869 1.69373 8.06474 2.35571 8.60952C1.56909 8.97056 1.06458 9.75643 1.06379 10.6219Z" fill="#DBDBDB"/>
</svg>
