<svg width="71" height="71" viewBox="0 0 71 71" fill="none" xmlns="http://www.w3.org/2000/svg">
<path d="M35.6875 0.25C16.3873 0.25 0.6875 15.9513 0.6875 35.25C0.6875 54.5487 16.3873 70.25 35.6875 70.25C54.9877 70.25 70.6875 54.5487 70.6875 35.25C70.6875 15.9513 54.9877 0.25 35.6875 0.25ZM49.6015 36.4762L29.1849 49.6012C28.9456 49.7564 28.6693 49.8334 28.3959 49.8334C28.1566 49.8334 27.9145 49.7735 27.6981 49.6554C27.228 49.399 26.9375 48.909 26.9375 48.375V22.125C26.9375 21.591 27.228 21.101 27.6981 20.8446C28.1595 20.5912 28.7377 20.6067 29.1849 20.8988L49.6015 34.0238C50.0174 34.2915 50.2709 34.7544 50.2709 35.25C50.2709 35.7456 50.0174 36.2084 49.6015 36.4762Z" fill="#15677F"/>
</svg>
