<svg width="108" height="32" viewBox="0 0 108 32" fill="none" xmlns="http://www.w3.org/2000/svg">
<path d="M107.4 27.7221C107.4 29.3848 106.025 30.7316 104.324 30.7316H3.67907C1.97931 30.7316 0.599609 29.3848 0.599609 27.7221V3.72241C0.599609 2.06051 1.97931 0.708984 3.67907 0.708984H104.323C106.025 0.708984 107.399 2.06051 107.399 3.72241L107.4 27.7221Z" fill="white"/>
<path d="M104 0.745289C105.852 0.745289 107.359 2.21461 107.359 4.02032V27.4203C107.359 29.226 105.852 30.6953 104 30.6953H4C2.148 30.6953 0.641 29.226 0.641 27.4203V4.02032C0.641 2.21461 2.148 0.745289 4 0.745289H104ZM104 0.120316H4C1.801 0.120316 0 1.87629 0 4.02032V27.4203C0 29.5643 1.801 31.3203 4 31.3203H104C106.199 31.3203 108 29.5643 108 27.4203V4.02032C108 1.87629 106.199 0.120316 104 0.120316Z" fill="#A6A6A6"/>
<path d="M24.1023 15.5515C24.0791 13.0376 26.2135 11.8145 26.3111 11.7576C25.1023 10.0392 23.2287 9.80446 22.5703 9.78574C20.9967 9.62428 19.4703 10.7038 18.6687 10.7038C17.8511 10.7038 16.6167 9.80134 15.2863 9.82786C13.5743 9.8536 11.9727 10.82 11.0943 12.3207C9.28147 15.3807 10.6335 19.8774 12.3703 22.3508C13.2391 23.5621 14.2543 24.9146 15.5831 24.867C16.8831 24.8148 17.3687 24.059 18.9375 24.059C20.4919 24.059 20.9479 24.867 22.3031 24.8366C23.6983 24.8148 24.5767 23.6198 25.4151 22.3976C26.4191 21.0092 26.8223 19.6418 26.8383 19.5716C26.8055 19.5607 24.1287 18.5646 24.1023 15.5515Z" fill="black"/>
<path d="M21.5423 8.15866C22.2415 7.30612 22.7199 6.14626 22.5871 4.96924C21.5751 5.01292 20.3095 5.65174 19.5807 6.48556C18.9359 7.22032 18.3599 8.42464 18.5087 9.5572C19.6455 9.63988 20.8127 8.99794 21.5423 8.15866Z" fill="black"/>
<path d="M39.2396 7.9271C39.2396 8.84516 38.9572 9.53624 38.3932 10.0003C37.8708 10.4286 37.1284 10.6431 36.1668 10.6431C35.69 10.6431 35.282 10.6228 34.9404 10.5822V5.56604C35.386 5.49584 35.866 5.45996 36.3844 5.45996C37.3004 5.45996 37.9908 5.65418 38.4564 6.04262C38.978 6.48176 39.2396 7.10966 39.2396 7.9271ZM38.3556 7.94972C38.3556 7.35458 38.194 6.89828 37.8708 6.58004C37.5476 6.26258 37.0756 6.10346 36.454 6.10346C36.19 6.10346 35.9652 6.12062 35.7788 6.1565V9.96992C35.882 9.98552 36.0708 9.99254 36.3452 9.99254C36.9868 9.99254 37.482 9.8186 37.8308 9.47072C38.1796 9.12284 38.3556 8.61584 38.3556 7.94972Z" fill="black"/>
<path d="M43.927 8.72911C43.927 9.29461 43.7614 9.75793 43.4302 10.1214C43.083 10.495 42.623 10.6815 42.0486 10.6815C41.495 10.6815 41.0542 10.5028 40.7254 10.144C40.3974 9.78601 40.2334 9.33439 40.2334 8.78995C40.2334 8.22055 40.4022 7.75333 40.7414 7.39063C41.0806 7.02793 41.5366 6.84619 42.111 6.84619C42.6646 6.84619 43.1094 7.02481 43.4462 7.38283C43.7662 7.73071 43.927 8.17999 43.927 8.72911ZM43.0574 8.75563C43.0574 8.41633 42.9822 8.12539 42.8326 7.88281C42.6566 7.58953 42.4062 7.44289 42.0806 7.44289C41.7438 7.44289 41.4878 7.58953 41.3118 7.88281C41.1614 8.12539 41.087 8.42101 41.087 8.77045C41.087 9.10975 41.1622 9.40069 41.3118 9.64327C41.4934 9.93655 41.7462 10.0832 42.0726 10.0832C42.3926 10.0832 42.6438 9.93421 42.8246 9.63547C42.9798 9.38821 43.0574 9.09493 43.0574 8.75563Z" fill="black"/>
<path d="M50.212 6.9209L49.032 10.5978H48.264L47.7752 9.00116C47.6512 8.60258 47.5504 8.20634 47.472 7.81322H47.4568C47.384 8.21726 47.2832 8.61272 47.1536 9.00116L46.6344 10.5978H45.8576L44.748 6.9209H45.6096L46.036 8.66888C46.1392 9.08228 46.224 9.47618 46.292 9.84902H46.3072C46.3696 9.5417 46.4728 9.15014 46.6184 8.67668L47.1536 6.92168H47.8368L48.3496 8.63924C48.4736 9.0581 48.5744 9.46136 48.652 9.8498H48.6752C48.732 9.4715 48.8176 9.06824 48.9312 8.63924L49.3888 6.92168H50.212V6.9209Z" fill="black"/>
<path d="M54.5575 10.5979H53.7191V8.49189C53.7191 7.84293 53.4663 7.51845 52.9591 7.51845C52.7103 7.51845 52.5095 7.60737 52.3535 7.78599C52.1991 7.96461 52.1207 8.17521 52.1207 8.41623V10.5971H51.2823V7.97163C51.2823 7.64871 51.272 7.29849 51.252 6.91941H51.9887L52.028 7.49427H52.0512C52.1488 7.31565 52.2944 7.16823 52.4855 7.05045C52.7127 6.91317 52.9671 6.84375 53.2455 6.84375C53.5975 6.84375 53.8903 6.95451 54.1231 7.17681C54.4127 7.44903 54.5575 7.85541 54.5575 8.39517V10.5979Z" fill="black"/>
<path d="M56.8698 10.5979H56.0322V5.23389H56.8698V10.5979Z" fill="black"/>
<path d="M61.8059 8.72911C61.8059 9.29461 61.6403 9.75793 61.3091 10.1214C60.9619 10.495 60.5011 10.6815 59.9275 10.6815C59.3731 10.6815 58.9323 10.5028 58.6043 10.144C58.2763 9.78601 58.1123 9.33439 58.1123 8.78995C58.1123 8.22055 58.2811 7.75333 58.6203 7.39063C58.9595 7.02793 59.4155 6.84619 59.9891 6.84619C60.5435 6.84619 60.9875 7.02481 61.3251 7.38283C61.6451 7.73071 61.8059 8.17999 61.8059 8.72911ZM60.9355 8.75563C60.9355 8.41633 60.8603 8.12539 60.7107 7.88281C60.5355 7.58953 60.2843 7.44289 59.9595 7.44289C59.6219 7.44289 59.3659 7.58953 59.1907 7.88281C59.0403 8.12539 58.9659 8.42101 58.9659 8.77045C58.9659 9.10975 59.0411 9.40069 59.1907 9.64327C59.3723 9.93655 59.6251 10.0832 59.9515 10.0832C60.2715 10.0832 60.5219 9.93421 60.7027 9.63547C60.8587 9.38821 60.9355 9.09493 60.9355 8.75563Z" fill="black"/>
<path d="M65.8636 10.598H65.1108L65.0484 10.1745H65.0252C64.7676 10.5122 64.4004 10.6815 63.9236 10.6815C63.5676 10.6815 63.2796 10.5699 63.0628 10.3484C62.866 10.1472 62.7676 9.89677 62.7676 9.59959C62.7676 9.15031 62.9596 8.80789 63.346 8.57077C63.7316 8.33365 64.274 8.21743 64.9724 8.22289V8.15425C64.9724 7.66987 64.7116 7.42807 64.1892 7.42807C63.8172 7.42807 63.4892 7.51933 63.206 7.70029L63.0356 7.16365C63.386 6.95227 63.8188 6.84619 64.3292 6.84619C65.3148 6.84619 65.8092 7.35319 65.8092 8.36719V9.72127C65.8092 10.0887 65.8276 10.3812 65.8636 10.598ZM64.9932 9.33439V8.76733C64.0684 8.75173 63.606 8.99899 63.606 9.50833C63.606 9.70021 63.6588 9.84373 63.7668 9.93967C63.8748 10.0356 64.0124 10.0832 64.1764 10.0832C64.3604 10.0832 64.5324 10.0263 64.6892 9.91315C64.8468 9.79927 64.9436 9.65497 64.9796 9.47791C64.9884 9.43813 64.9932 9.38977 64.9932 9.33439Z" fill="black"/>
<path d="M70.6273 10.5979H69.8833L69.8441 10.0075H69.8209C69.5833 10.4568 69.1785 10.6814 68.6097 10.6814C68.1553 10.6814 67.7769 10.5075 67.4769 10.1596C67.1769 9.81171 67.0273 9.36009 67.0273 8.80551C67.0273 8.21037 67.1897 7.72833 67.5161 7.36017C67.8321 7.01697 68.2193 6.84537 68.6801 6.84537C69.1865 6.84537 69.5409 7.01151 69.7425 7.34457H69.7585V5.23389H70.5977V9.60735C70.5977 9.96537 70.6073 10.2953 70.6273 10.5979ZM69.7585 9.04731V8.43423C69.7585 8.32815 69.7505 8.24235 69.7353 8.17683C69.6881 7.98027 69.5865 7.81491 69.4321 7.68153C69.2761 7.54815 69.0881 7.48107 68.8713 7.48107C68.5585 7.48107 68.3137 7.60197 68.1337 7.84455C67.9553 8.08713 67.8649 8.39679 67.8649 8.77509C67.8649 9.13857 67.9505 9.43341 68.1225 9.66039C68.3041 9.90219 68.5489 10.0231 68.8553 10.0231C69.1305 10.0231 69.3505 9.92247 69.5177 9.72045C69.6793 9.53403 69.7585 9.30939 69.7585 9.04731Z" fill="black"/>
<path d="M77.7981 8.72911C77.7981 9.29461 77.6325 9.75793 77.3013 10.1214C76.9541 10.495 76.4949 10.6815 75.9197 10.6815C75.3669 10.6815 74.9261 10.5028 74.5965 10.144C74.2685 9.78601 74.1045 9.33439 74.1045 8.78995C74.1045 8.22055 74.2733 7.75333 74.6125 7.39063C74.9517 7.02793 75.4077 6.84619 75.9829 6.84619C76.5357 6.84619 76.9813 7.02481 77.3173 7.38283C77.6373 7.73071 77.7981 8.17999 77.7981 8.72911ZM76.9293 8.75563C76.9293 8.41633 76.8541 8.12539 76.7045 7.88281C76.5277 7.58953 76.2781 7.44289 75.9517 7.44289C75.6157 7.44289 75.3597 7.58953 75.1829 7.88281C75.0325 8.12539 74.9581 8.42101 74.9581 8.77045C74.9581 9.10975 75.0333 9.40069 75.1829 9.64327C75.3645 9.93655 75.6173 10.0832 75.9437 10.0832C76.2637 10.0832 76.5157 9.93421 76.6965 9.63547C76.8509 9.38821 76.9293 9.09493 76.9293 8.75563Z" fill="black"/>
<path d="M82.3058 10.5979H81.4682V8.49189C81.4682 7.84293 81.2154 7.51845 80.7074 7.51845C80.4586 7.51845 80.2578 7.60737 80.1026 7.78599C79.9474 7.96461 79.8698 8.17521 79.8698 8.41623V10.5971H79.0306V7.97163C79.0306 7.64871 79.021 7.29849 79.001 6.91941H79.737L79.7762 7.49427H79.7994C79.8978 7.31565 80.0434 7.16823 80.2338 7.05045C80.4618 6.91317 80.7154 6.84375 80.9946 6.84375C81.3458 6.84375 81.6386 6.95451 81.8714 7.17681C82.1618 7.44903 82.3058 7.85541 82.3058 8.39517V10.5979Z" fill="black"/>
<path d="M87.9482 7.53339H87.025V9.31959C87.025 9.77355 87.189 10.0005 87.5138 10.0005C87.6642 10.0005 87.789 9.98805 87.8874 9.96231L87.909 10.5824C87.7434 10.6433 87.5258 10.6737 87.2578 10.6737C86.9266 10.6737 86.669 10.5754 86.4826 10.3788C86.2954 10.1823 86.2026 9.85155 86.2026 9.38745V7.53339H85.6514V6.92109H86.2026V6.24717L87.0242 6.00537V6.92031H87.9474V7.53339H87.9482Z" fill="black"/>
<path d="M92.3865 10.5979H91.5473V8.50755C91.5473 7.84845 91.2945 7.51851 90.7881 7.51851C90.3993 7.51851 90.1337 7.70961 89.9881 8.09181C89.9633 8.17215 89.9489 8.27043 89.9489 8.38587V10.5972H89.1113V5.23389H89.9489V7.44987H89.9649C90.2289 7.04661 90.6073 6.84537 91.0977 6.84537C91.4449 6.84537 91.7321 6.95613 91.9601 7.17843C92.2441 7.45533 92.3865 7.86717 92.3865 8.41161V10.5979Z" fill="black"/>
<path d="M96.9651 8.58577C96.9651 8.73241 96.9539 8.85565 96.9339 8.95627H94.4195C94.4307 9.31976 94.5507 9.59666 94.7835 9.78854C94.9963 9.96014 95.2707 10.0459 95.6067 10.0459C95.9787 10.0459 96.3179 9.98821 96.6235 9.87199L96.7547 10.4398C96.3971 10.5912 95.9763 10.6668 95.4891 10.6668C94.9051 10.6668 94.4451 10.4991 94.1123 10.1637C93.7779 9.82832 93.6123 9.37826 93.6123 8.81354C93.6123 8.25896 93.7667 7.7972 94.0779 7.42904C94.4027 7.03592 94.8419 6.83936 95.3963 6.83936C95.9387 6.83936 96.3507 7.03592 96.6291 7.42904C96.8539 7.74104 96.9651 8.12713 96.9651 8.58577ZM96.1651 8.37439C96.1715 8.13181 96.1163 7.92278 96.0027 7.7465C95.8571 7.51952 95.6355 7.40564 95.3355 7.40564C95.0619 7.40564 94.8387 7.5164 94.6683 7.7387C94.5291 7.91576 94.4467 8.12713 94.4195 8.37439H96.1651Z" fill="black"/>
<path d="M42.9157 24.6932H41.0989L40.1037 21.6442H36.6445L35.6965 24.6932H33.9277L37.3549 14.313H39.4717L42.9157 24.6932ZM39.8037 20.365L38.9037 17.6545C38.8085 17.3776 38.6301 16.7255 38.3669 15.699H38.3349C38.2301 16.1405 38.0613 16.7926 37.8293 17.6545L36.9453 20.365H39.8037Z" fill="black"/>
<path d="M51.7297 20.8592C51.7297 22.1322 51.3769 23.1384 50.6713 23.8771C50.0393 24.5346 49.2545 24.863 48.3177 24.863C47.3065 24.863 46.5801 24.5089 46.1377 23.8006H46.1057V27.7435H44.4001V19.6729C44.4001 18.8726 44.3785 18.0512 44.3369 17.2088H45.8369L45.9321 18.3952H45.9641C46.5329 17.5013 47.3961 17.0552 48.5545 17.0552C49.4601 17.0552 50.2161 17.4038 50.8209 18.1019C51.4273 18.8008 51.7297 19.7197 51.7297 20.8592ZM49.9921 20.9201C49.9921 20.1916 49.8241 19.591 49.4865 19.1183C49.1177 18.6253 48.6225 18.3788 48.0017 18.3788C47.5809 18.3788 47.1985 18.5161 46.8569 18.7868C46.5145 19.0598 46.2905 19.4162 46.1857 19.8577C46.1329 20.0636 46.1065 20.2321 46.1065 20.3647V21.6127C46.1065 22.1572 46.2777 22.6166 46.6201 22.9918C46.9625 23.3669 47.4073 23.5541 47.9545 23.5541C48.5969 23.5541 49.0969 23.3123 49.4545 22.8303C49.8129 22.3475 49.9921 21.711 49.9921 20.9201Z" fill="black"/>
<path d="M60.559 20.8592C60.559 22.1322 60.2062 23.1384 59.4998 23.8771C58.8686 24.5346 58.0838 24.863 57.147 24.863C56.1358 24.863 55.4094 24.5089 54.9678 23.8006H54.9358V27.7435H53.2302V19.6729C53.2302 18.8726 53.2086 18.0512 53.167 17.2088H54.667L54.7622 18.3952H54.7942C55.3622 17.5013 56.2254 17.0552 57.3846 17.0552C58.2894 17.0552 59.0454 17.4038 59.6518 18.1019C60.2558 18.8008 60.559 19.7197 60.559 20.8592ZM58.8214 20.9201C58.8214 20.1916 58.6526 19.591 58.315 19.1183C57.9462 18.6253 57.4526 18.3788 56.831 18.3788C56.4094 18.3788 56.0278 18.5161 55.6854 18.7868C55.343 19.0598 55.1198 19.4162 55.015 19.8577C54.963 20.0636 54.9358 20.2321 54.9358 20.3647V21.6127C54.9358 22.1572 55.107 22.6166 55.4478 22.9918C55.7902 23.3662 56.235 23.5541 56.7838 23.5541C57.4262 23.5541 57.9262 23.3123 58.2838 22.8303C58.6422 22.3475 58.8214 21.711 58.8214 20.9201Z" fill="black"/>
<path d="M70.431 21.7825C70.431 22.6655 70.1166 23.3839 69.4854 23.9384C68.7918 24.5445 67.8262 24.8471 66.5854 24.8471C65.4398 24.8471 64.5214 24.6319 63.8262 24.2005L64.2214 22.8145C64.9702 23.2559 65.7918 23.4775 66.687 23.4775C67.3294 23.4775 67.8294 23.3355 68.1886 23.0531C68.5462 22.7708 68.7246 22.3917 68.7246 21.919C68.7246 21.4978 68.5774 21.1429 68.2822 20.8551C67.9886 20.5673 67.4982 20.2997 66.8134 20.0525C64.9494 19.3747 64.0182 18.3817 64.0182 17.076C64.0182 16.2227 64.3446 15.523 64.9982 14.9786C65.6494 14.4334 66.5182 14.1611 67.6046 14.1611C68.5734 14.1611 69.3782 14.3257 70.0206 14.6541L69.5942 16.0097C68.9942 15.6915 68.3158 15.5324 67.5566 15.5324C66.9566 15.5324 66.4878 15.6767 66.1518 15.9637C65.8678 16.2203 65.7254 16.5331 65.7254 16.9036C65.7254 17.3139 65.8878 17.6532 66.2142 17.92C66.4982 18.1664 67.0142 18.4332 67.763 18.721C68.679 19.0806 69.3518 19.501 69.7846 19.9831C70.2158 20.4635 70.431 21.0649 70.431 21.7825Z" fill="black"/>
<path d="M76.0697 18.4567H74.1897V22.0907C74.1897 23.015 74.5209 23.4768 75.1849 23.4768C75.4897 23.4768 75.7425 23.4511 75.9425 23.3996L75.9897 24.6624C75.6537 24.7849 75.2113 24.8465 74.6633 24.8465C73.9897 24.8465 73.4633 24.646 73.0833 24.2459C72.7049 23.845 72.5145 23.1726 72.5145 22.228V18.4552H71.3945V17.2072H72.5145V15.8367L74.1897 15.3438V17.2072H76.0697V18.4567Z" fill="black"/>
<path d="M84.5524 20.8894C84.5524 22.0399 84.2148 22.9844 83.5412 23.7231C82.8348 24.4836 81.8972 24.8627 80.7284 24.8627C79.602 24.8627 78.7052 24.4984 78.0364 23.7699C77.3676 23.0414 77.0332 22.1218 77.0332 21.0134C77.0332 19.8535 77.3772 18.9035 78.0676 18.1648C78.7564 17.4254 79.686 17.0557 80.8548 17.0557C81.9812 17.0557 82.8876 17.4199 83.5716 18.1492C84.226 18.8567 84.5524 19.7701 84.5524 20.8894ZM82.7828 20.9432C82.7828 20.2529 82.6316 19.6609 82.3252 19.1671C81.9676 18.5696 81.4564 18.2717 80.794 18.2717C80.1084 18.2717 79.5876 18.5704 79.23 19.1671C78.9236 19.6616 78.7724 20.263 78.7724 20.9744C78.7724 21.6647 78.9236 22.2567 79.23 22.7497C79.5988 23.3471 80.114 23.6451 80.7788 23.6451C81.43 23.6451 81.9412 23.3409 82.31 22.7341C82.6244 22.231 82.7828 21.6327 82.7828 20.9432Z" fill="black"/>
<path d="M90.0965 18.6713C89.9277 18.6409 89.7477 18.6253 89.5589 18.6253C88.9589 18.6253 88.4949 18.8461 88.1685 19.2883C87.8845 19.6783 87.7421 20.1713 87.7421 20.7664V24.6937H86.0373L86.0533 19.566C86.0533 18.7033 86.0317 17.9179 85.9893 17.2096H87.4749L87.5373 18.6417H87.5845C87.7645 18.1495 88.0485 17.7533 88.4373 17.4561C88.8173 17.1886 89.2277 17.0552 89.6701 17.0552C89.8277 17.0552 89.9701 17.0661 90.0965 17.0856V18.6713Z" fill="black"/>
<path d="M97.7247 20.597C97.7247 20.895 97.7047 21.1462 97.6623 21.3513H92.5455C92.5655 22.0907 92.8127 22.6562 93.2879 23.0462C93.7191 23.3949 94.2767 23.5696 94.9615 23.5696C95.7191 23.5696 96.4103 23.4518 97.0319 23.2155L97.2991 24.3699C96.5727 24.6788 95.7151 24.8324 94.7255 24.8324C93.5351 24.8324 92.6007 24.4908 91.9207 23.8083C91.2423 23.1258 90.9023 22.2093 90.9023 21.0596C90.9023 19.9309 91.2183 18.991 91.8511 18.2414C92.5135 17.4412 93.4087 17.041 94.5351 17.041C95.6415 17.041 96.4791 17.4412 97.0479 18.2414C97.4983 18.8771 97.7247 19.6634 97.7247 20.597ZM96.0983 20.1657C96.1095 19.6727 95.9983 19.2469 95.7671 18.8873C95.4719 18.4247 95.0183 18.1939 94.4079 18.1939C93.8503 18.1939 93.3967 18.4193 93.0503 18.8717C92.7663 19.2313 92.5975 19.6626 92.5455 20.1649H96.0983V20.1657Z" fill="black"/>
</svg>
