<svg xmlns="http://www.w3.org/2000/svg" width="14" height="14" viewBox="0 0 14 14">
  <defs>

  </defs>
  <path id="lang_icon" data-name="Path 4"  d="M11.95,2.05a7,7,0,0,0-9.9,9.9,7,7,0,0,0,9.9-9.9Zm-7.4-.423a6.309,6.309,0,0,0-.319.565A8.1,8.1,0,0,0,3.8,3.227H2.46A5.94,5.94,0,0,1,4.548,1.627ZM1.737,4.32H3.5a12.483,12.483,0,0,0-.266,2.133H1.119A5.861,5.861,0,0,1,1.737,4.32Zm0,5.359a5.861,5.861,0,0,1-.618-2.133H3.238A12.486,12.486,0,0,0,3.5,9.68Zm.723,1.094H3.8a8.091,8.091,0,0,0,.427,1.034,6.316,6.316,0,0,0,.319.565A5.939,5.939,0,0,1,2.46,10.773Zm3.993,1.993a3.153,3.153,0,0,1-1.246-1.448q-.13-.26-.242-.545H6.453Zm0-3.087H4.624a11.168,11.168,0,0,1-.292-2.133H6.453Zm0-3.227H4.332A11.166,11.166,0,0,1,4.624,4.32H6.453Zm0-3.227H4.966q.112-.285.242-.545A3.153,3.153,0,0,1,6.453,1.233V3.227ZM12.263,4.32a5.862,5.862,0,0,1,.618,2.133H10.762A12.486,12.486,0,0,0,10.5,4.32ZM11.54,3.227H10.2a8.091,8.091,0,0,0-.427-1.034,6.315,6.315,0,0,0-.319-.565A5.939,5.939,0,0,1,11.54,3.227ZM7.547,1.233A3.153,3.153,0,0,1,8.792,2.682q.13.26.242.545H7.547Zm0,3.087H9.376a11.168,11.168,0,0,1,.292,2.133H7.547Zm1.246,7a3.153,3.153,0,0,1-1.246,1.448V10.773H9.034Q8.922,11.058,8.792,11.318ZM7.547,9.68V7.547H9.668A11.166,11.166,0,0,1,9.376,9.68Zm1.9,2.693a6.309,6.309,0,0,0,.319-.565,8.1,8.1,0,0,0,.427-1.034H11.54A5.94,5.94,0,0,1,9.452,12.373ZM12.263,9.68H10.5a12.483,12.483,0,0,0,.266-2.133h2.118A5.861,5.861,0,0,1,12.263,9.68Z"/>
</svg>
