<svg width="17" height="18" viewBox="0 0 17 18" fill="none" xmlns="http://www.w3.org/2000/svg">
<path d="M15.2085 0.875H1.4585C1.12698 0.875 0.809033 1.0067 0.574613 1.24112C0.340192 1.47554 0.208496 1.79348 0.208496 2.125V15.875C0.208496 16.2065 0.340192 16.5245 0.574613 16.7589C0.809033 16.9933 1.12698 17.125 1.4585 17.125H15.2085C15.54 17.125 15.858 16.9933 16.0924 16.7589C16.3268 16.5245 16.4585 16.2065 16.4585 15.875V2.125C16.4585 1.79348 16.3268 1.47554 16.0924 1.24112C15.858 1.0067 15.54 0.875 15.2085 0.875ZM5.8335 12.75C5.8335 12.9158 5.76765 13.0747 5.65044 13.1919C5.53323 13.3092 5.37426 13.375 5.2085 13.375C5.04274 13.375 4.88376 13.3092 4.76655 13.1919C4.64934 13.0747 4.5835 12.9158 4.5835 12.75V7.75C4.5835 7.58424 4.64934 7.42527 4.76655 7.30806C4.88376 7.19085 5.04274 7.125 5.2085 7.125C5.37426 7.125 5.53323 7.19085 5.65044 7.30806C5.76765 7.42527 5.8335 7.58424 5.8335 7.75V12.75ZM5.2085 6.5C5.02308 6.5 4.84182 6.44502 4.68765 6.342C4.53348 6.23899 4.41332 6.09257 4.34236 5.92127C4.2714 5.74996 4.25284 5.56146 4.28901 5.3796C4.32518 5.19775 4.41447 5.0307 4.54558 4.89959C4.67669 4.76848 4.84374 4.67919 5.0256 4.64301C5.20746 4.60684 5.39596 4.62541 5.56726 4.69636C5.73857 4.76732 5.88499 4.88748 5.988 5.04165C6.09101 5.19582 6.146 5.37708 6.146 5.5625C6.146 5.81114 6.04722 6.0496 5.87141 6.22541C5.69559 6.40123 5.45714 6.5 5.2085 6.5ZM12.7085 12.75C12.7085 12.9158 12.6426 13.0747 12.5254 13.1919C12.4082 13.3092 12.2493 13.375 12.0835 13.375C11.9177 13.375 11.7588 13.3092 11.6416 13.1919C11.5243 13.0747 11.4585 12.9158 11.4585 12.75V9.9375C11.4585 9.5231 11.2939 9.12567 11.0009 8.83265C10.7078 8.53962 10.3104 8.375 9.896 8.375C9.4816 8.375 9.08417 8.53962 8.79114 8.83265C8.49812 9.12567 8.3335 9.5231 8.3335 9.9375V12.75C8.3335 12.9158 8.26765 13.0747 8.15044 13.1919C8.03323 13.3092 7.87426 13.375 7.7085 13.375C7.54274 13.375 7.38376 13.3092 7.26655 13.1919C7.14934 13.0747 7.0835 12.9158 7.0835 12.75V7.75C7.08427 7.59691 7.14121 7.44943 7.24351 7.33553C7.3458 7.22164 7.48635 7.14925 7.63848 7.1321C7.7906 7.11495 7.94374 7.15423 8.06882 7.2425C8.19391 7.33076 8.28225 7.46186 8.31709 7.61094C8.73989 7.32412 9.23283 7.15789 9.74298 7.13009C10.2531 7.1023 10.7612 7.21399 11.2127 7.45317C11.6641 7.69236 12.0419 8.05 12.3055 8.48769C12.569 8.92538 12.7083 9.42659 12.7085 9.9375V12.75Z" fill="white"/>
</svg>
