<svg id="pin" xmlns="http://www.w3.org/2000/svg" width="10.748" height="14" viewBox="0 0 10.748 14">
  <g id="Group_20" data-name="Group 20" transform="translate(2.884 3.01)">
    <g id="Group_19" data-name="Group 19">
      <path id="Path_19" data-name="Path 19" d="M7.983,3.756a2.549,2.549,0,0,0-2.49,2.6,2.549,2.549,0,0,0,2.49,2.6,2.549,2.549,0,0,0,2.49-2.6A2.549,2.549,0,0,0,7.983,3.756Zm0,4.1a1.506,1.506,0,1,1,1.442-1.5A1.476,1.476,0,0,1,7.983,7.86Z" transform="translate(-5.493 -3.756)" fill="#15677f"/>
    </g>
  </g>
  <g id="Group_22" data-name="Group 22">
    <g id="Group_21" data-name="Group 21">
      <path id="Path_20" data-name="Path 20" d="M7.11,0A5.5,5.5,0,0,0,1.737,5.609v.155c0,1.564.859,3.387,2.554,5.417a22.536,22.536,0,0,0,2.491,2.541L7.11,14l.329-.278A22.531,22.531,0,0,0,9.93,11.181c1.695-2.03,2.554-3.853,2.554-5.417V5.609A5.5,5.5,0,0,0,7.11,0Zm4.325,5.764c0,2.643-3.263,5.843-4.325,6.814-1.062-.972-4.325-4.171-4.325-6.814V5.609A4.428,4.428,0,0,1,7.11,1.094a4.428,4.428,0,0,1,4.325,4.514Z" transform="translate(-1.737 0)" fill="#15677f"/>
    </g>
  </g>
</svg>
