<svg xmlns="http://www.w3.org/2000/svg" width="112.981" height="74.605" viewBox="0 0 112.981 74.605">
  <g id="Group_9140" data-name="Group 9140" transform="translate(9886.84 -19131.189)">
    <path id="ic_payment_24px" d="M70.624,4h-61a7.566,7.566,0,0,0-7.587,7.625L2,57.374A7.6,7.6,0,0,0,9.625,65h61a7.6,7.6,0,0,0,7.625-7.625V11.625A7.6,7.6,0,0,0,70.624,4Zm0,53.374h-61V34.5h61Zm0-38.125h-61V11.625h61Z" transform="translate(-9888.84 19140.795)"/>
    <path id="ic_payment_24px-2" data-name="ic_payment_24px" d="M70.624,4h-61a7.566,7.566,0,0,0-7.587,7.625L2,57.374A7.6,7.6,0,0,0,9.625,65h61a7.6,7.6,0,0,0,7.625-7.625V11.625A7.6,7.6,0,0,0,70.624,4Zm0,53.374h-61V34.5h61Zm0-38.125h-61V11.625h61Z" transform="translate(-9852.107 19127.189)" opacity="0.26"/>
  </g>
</svg>
