<svg id="message" xmlns="http://www.w3.org/2000/svg" xmlns:xlink="http://www.w3.org/1999/xlink" width="20" height="20" viewBox="0 0 20 20">
  <defs>
    <clipPath id="message">
      <rect id="Rectangle_31" data-name="Rectangle 31" width="20" height="20" transform="translate(1375 746)" fill="#15677f"/>
    </clipPath>
  </defs>
  <g id="message" data-name="Mask Group 2" transform="translate(-1375 -746)" clip-path="url(#clip-path)">
    <g id="chat" transform="translate(1375 746)">
      <g id="Group_24" data-name="Group 24">
        <path id="Path_22" data-name="Path 22" d="M19.2,5.424a7,7,0,0,0-2.22-2.617A11.88,11.88,0,0,0,10,.918,11.88,11.88,0,0,0,3.024,2.807,7,7,0,0,0,.8,5.424,8.53,8.53,0,0,0,0,9.2,7.415,7.415,0,0,0,3.657,16a8.3,8.3,0,0,1-.765,1.884L2.15,19.08l1.4,0h.017A6.052,6.052,0,0,0,7.7,17.328a16.734,16.734,0,0,0,2.3.153,11.88,11.88,0,0,0,6.976-1.889,7,7,0,0,0,2.22-2.617A8.53,8.53,0,0,0,20,9.2,8.53,8.53,0,0,0,19.2,5.424Zm-3.135,8.9A10.363,10.363,0,0,1,10,15.918a14.752,14.752,0,0,1-2.458-.2l-.435-.074-.288.334A4.383,4.383,0,0,1,4.88,17.289a11.565,11.565,0,0,0,.445-1.515l.133-.6-.55-.271A5.863,5.863,0,0,1,1.563,9.2,5.938,5.938,0,0,1,3.939,4.074,10.363,10.363,0,0,1,10,2.48a10.363,10.363,0,0,1,6.061,1.593A5.938,5.938,0,0,1,18.438,9.2,5.938,5.938,0,0,1,16.061,14.325Z" fill="#15677f"/>
      </g>
    </g>
  </g>
</svg>
