<svg id="Component_1_1" data-name="Component 1 – 1" xmlns="http://www.w3.org/2000/svg" width="13.997" height="14" viewBox="0 0 13.997 14">
  <path id="Path_8" data-name="Path 8" d="M243.968,299.636l-3.8,4.23-2.144-2.041-.754.792,2.959,2.817,4.551-5.067Z" transform="translate(-230.785 -291.443)" fill="#15677f"/>
  <path id="Path_9" data-name="Path 9" d="M9.35,7.382a4.047,4.047,0,1,0-4.579,0A7.011,7.011,0,0,0,.06,14H1.154a5.9,5.9,0,0,1,9.565-4.633l.734-.818A6.942,6.942,0,0,0,9.35,7.382ZM7.06,7a2.953,2.953,0,1,1,2.953-2.953A2.956,2.956,0,0,1,7.06,7Z" transform="translate(-0.06)" fill="#15677f"/>
</svg>
