<svg width="48" height="49" viewBox="0 0 48 49" fill="none" xmlns="http://www.w3.org/2000/svg">
<path d="M46.2077 33.3152C47.212 32.0342 47.6936 30.661 47.6321 29.2468C47.5707 27.6892 46.8738 26.4697 46.2999 25.7216C46.966 24.0615 47.2222 21.4484 44.9985 19.4193C43.3691 17.9334 40.6022 17.2673 36.7696 17.4518C34.0745 17.5747 31.82 18.0769 31.7277 18.0974H31.7175C31.2051 18.1896 30.662 18.3023 30.1086 18.4253C30.0676 17.7695 30.1804 16.1401 31.3896 12.4714C32.8243 8.1059 32.7423 4.76516 31.1231 2.53117C29.422 0.184458 26.7064 0 25.9071 0C25.1385 0 24.4314 0.317678 23.9293 0.901794C22.7918 2.22374 22.925 4.66269 23.0685 5.78993C21.7158 9.4176 17.9241 18.3126 14.7166 20.7823C14.6551 20.8233 14.6039 20.8745 14.5527 20.9257C13.6099 21.9198 12.9745 22.9958 12.5441 23.9385C11.9395 23.6106 11.2529 23.4262 10.5151 23.4262H4.264C1.90704 23.4262 0.000976562 25.3425 0.000976562 27.6892V44.3416C0.000976562 46.6986 1.91729 48.6047 4.264 48.6047H10.5151C11.4271 48.6047 12.2777 48.3177 12.9745 47.8259L15.3827 48.1128C15.7516 48.164 22.3101 48.9941 29.0429 48.8609C30.2623 48.9531 31.4101 49.0043 32.4758 49.0043C34.3102 49.0043 35.9088 48.8609 37.241 48.5739C40.3768 47.9078 42.5185 46.5756 43.6048 44.6183C44.4349 43.1222 44.4349 41.6363 44.3016 40.6935C46.3409 38.8489 46.6996 36.8096 46.6279 35.3749C46.5869 34.5449 46.4024 33.8378 46.2077 33.3152ZM4.26401 45.8378C3.43395 45.8378 2.76785 45.1615 2.76785 44.3416V27.6789C2.76785 26.8489 3.4442 26.1828 4.26401 26.1828H10.5151C11.3451 26.1828 12.0112 26.8591 12.0112 27.6789V44.3314C12.0112 45.1615 11.3349 45.8276 10.5151 45.8276H4.26401V45.8378ZM43.5843 32.1162C43.1539 32.5671 43.0719 33.2537 43.3998 33.7866C43.3998 33.7968 43.82 34.5141 43.8712 35.4979C43.943 36.8404 43.2974 38.0291 41.9447 39.0436C41.463 39.4125 41.2683 40.0479 41.4733 40.6217C41.4733 40.632 41.9139 41.9847 41.1966 43.2656C40.51 44.4954 38.9831 45.3767 36.6671 45.8685C34.8123 46.2682 32.2914 46.3399 29.1966 46.094C29.1556 46.094 29.1044 46.094 29.0531 46.094C22.4639 46.2375 15.8029 45.3767 15.7311 45.3664H15.7209L14.6859 45.2434C14.7474 44.9565 14.7781 44.6491 14.7781 44.3416V27.6789C14.7781 27.2383 14.7064 26.8079 14.5834 26.4082C14.7679 25.7216 15.2803 24.1947 16.4895 22.8933C21.0907 19.2451 25.5894 6.93767 25.7841 6.40479C25.8661 6.18959 25.8866 5.95389 25.8456 5.7182C25.6714 4.57046 25.7329 3.16653 25.9788 2.74638C26.5219 2.75662 27.9874 2.91034 28.8687 4.12981C29.9139 5.57473 29.8729 8.15714 28.7457 11.5799C27.0241 16.7959 26.8806 19.5423 28.2435 20.7515C28.9199 21.3561 29.8217 21.3869 30.4775 21.1512C31.1027 21.0077 31.697 20.8847 32.2606 20.7925C32.3016 20.7823 32.3529 20.772 32.3939 20.7618C35.5399 20.0752 41.1761 19.655 43.1334 21.4381C44.7935 22.9548 43.615 24.9633 43.4818 25.1785C43.1027 25.7524 43.2154 26.5005 43.7278 26.9616C43.738 26.9719 44.814 27.9864 44.8653 29.3493C44.9063 30.2614 44.4758 31.1939 43.5843 32.1162Z" fill="#15677F"/>
</svg>
