<svg xmlns="http://www.w3.org/2000/svg" xmlns:xlink="http://www.w3.org/1999/xlink" width="14" height="14" viewBox="0 0 14 14">
  <defs>
    <style>
      <!-- .cls-1, .cls-3 {
        fill: #fff;
      }

      .cls-1 {
        stroke: #707070;
      }

      .cls-2 {
        clip-path: url(#clip-path);
      } -->
    </style>
    <clipPath id="np-phone-icon">
      <rect id="Rectangle_393" data-name="Rectangle 393" class="cls-1" width="14" height="14"/>
    </clipPath>
  </defs>
  <g id="Mask_Group_51" data-name="Mask Group 51" class="cls-2">
    <g id="phone" transform="translate(0 0)">
      <g id="Group_348" data-name="Group 348">
        <g id="Group_347" data-name="Group 347">
          <path id="Path_107" data-name="Path 107" class="cls-3" d="M7.328,1.67h.027a4.964,4.964,0,0,1,4.974,5,.547.547,0,0,0,.544.549h0a.547.547,0,0,0,.547-.544A6.058,6.058,0,0,0,7.356.577h-.03a.547.547,0,0,0,0,1.094Z" transform="translate(0 0)"/>
          <path id="Path_108" data-name="Path 108" class="cls-3" d="M14,11.281a2.071,2.071,0,0,0-.635-1.423A5.086,5.086,0,0,0,11.35,8.52a2.254,2.254,0,0,0-2.314.657l0,0-.74.735a11.011,11.011,0,0,1-2.331-1.8l-.072-.072a11.08,11.08,0,0,1-1.8-2.331l.734-.739,0,0A2.254,2.254,0,0,0,5.48,2.65,5.086,5.086,0,0,0,4.142.637a2.081,2.081,0,0,0-2.888-.1L1.238.547l-.021.02A4.437,4.437,0,0,0,0,3.817a10.385,10.385,0,0,0,3.305,6.878l.005.005a13.346,13.346,0,0,0,1.306,1.137.547.547,0,1,0,.666-.868,12.229,12.229,0,0,1-1.2-1.047l-.005-.005a9.285,9.285,0,0,1-2.98-6.1A3.378,3.378,0,0,1,1.981,1.35l0,0a.984.984,0,0,1,1.37.049c1.416,1.468,1.313,2.161.688,2.8L3.029,5.22a.547.547,0,0,0-.111.608,11.05,11.05,0,0,0,2.2,2.984l.072.072a11.05,11.05,0,0,0,2.984,2.2.547.547,0,0,0,.608-.111L9.8,9.957c.642-.626,1.335-.728,2.8.688a.984.984,0,0,1,.049,1.37l0,0a3.369,3.369,0,0,1-2.436.887h-.025a7.091,7.091,0,0,1-2.7-.639.547.547,0,1,0-.433,1A8.068,8.068,0,0,0,10.183,14h.031a4.427,4.427,0,0,0,3.219-1.217l.02-.021.014-.016A2.071,2.071,0,0,0,14,11.281Z" transform="translate(0 0)"/>
          <path id="Path_109" data-name="Path 109" class="cls-3" d="M10.1,3.9a3.006,3.006,0,0,0-1.42-.817.547.547,0,0,0-.292,1.054,1.913,1.913,0,0,1,.938.536,1.954,1.954,0,0,1,.531.921l.008.027a.547.547,0,1,0,1.049-.31l-.007-.025A3.01,3.01,0,0,0,10.1,3.9Z" transform="translate(0 0)"/>
        </g>
      </g>
    </g>
  </g>
</svg>
