<svg width="54" height="51" viewBox="0 0 54 51" fill="none" xmlns="http://www.w3.org/2000/svg">
<path d="M52.195 42.6293H51.1552V15.5961C51.1552 13.3029 49.2895 11.4371 46.9963 11.4371H39.6141V1.03974C39.6141 0.465491 39.1485 0 38.5744 0H14.6603C14.0861 0 13.6206 0.465491 13.6206 1.03974V11.4371H6.23844C3.94519 11.4371 2.07948 13.3029 2.07948 15.5961V42.6293H1.03974C0.465492 42.6293 0 43.0949 0 43.6691V46.7883C0 49.0816 1.86571 50.9473 4.15896 50.9473H49.0757C51.369 50.9473 53.2347 49.0816 53.2347 46.7883V43.6691C53.2347 43.0949 52.7691 42.6293 52.195 42.6293ZM15.7001 2.07948H37.5346V34.3114H15.7001C15.7001 33.2783 15.7001 3.07992 15.7001 2.07948ZM40.6538 36.3909C41.228 36.3909 41.6936 35.9253 41.6936 35.3512C41.6936 34.777 41.228 34.3114 40.6538 34.3114H39.6141V17.6756H44.9168V38.4704H8.31792V17.6756H13.6206V34.3114H12.5809C12.0067 34.3114 11.5411 34.777 11.5411 35.3512C11.5411 35.9253 12.0067 36.3909 12.5809 36.3909H40.6538ZM4.15896 15.5961C4.15896 14.4495 5.09181 13.5166 6.23844 13.5166H13.6206V15.5961H7.27818C6.70404 15.5961 6.23844 16.0616 6.23844 16.6358V39.5101C6.23844 40.0843 6.70404 40.5499 7.27818 40.5499H45.9565C46.5307 40.5499 46.9963 40.0843 46.9963 39.5101V16.6358C46.9963 16.0616 46.5307 15.5961 45.9565 15.5961H39.6141V13.5166H46.9963C48.1429 13.5166 49.0757 14.4495 49.0757 15.5961V42.6293H4.15896V15.5961ZM51.1552 46.7883C51.1552 47.9349 50.2224 48.8678 49.0757 48.8678H4.15896C3.01234 48.8678 2.07948 47.9349 2.07948 46.7883V44.7088H51.1552V46.7883Z" fill="#15677F"/>
<path d="M23.208 18.9324C24.1567 19.5532 24.8424 19.7827 25.7174 19.8556V20.3942C25.7174 20.9683 26.183 21.4339 26.7571 21.4339C27.3313 21.4339 27.7969 20.9683 27.7969 20.3942V19.7327C29.4362 19.2754 30.4863 17.8577 30.7214 16.4587C31.03 14.624 30.0339 12.9658 28.2427 12.3326C27.2091 11.9673 26.0651 11.5253 25.4172 11.0173C24.8953 10.608 25.1077 9.23722 26.079 8.94474C27.3784 8.55317 28.2189 9.26436 28.2542 9.29471L28.2428 9.28442L28.2437 9.28338C28.4343 9.4589 28.6874 9.56005 28.9479 9.56005C29.5205 9.56005 29.9876 9.09332 29.9876 8.52031C29.9876 8.24572 29.8763 7.97861 29.6828 7.78522C29.6728 7.77514 29.6619 7.7664 29.6514 7.75684L29.6525 7.75569C29.6086 7.71535 28.9245 7.09982 27.7968 6.85049V6.23798C27.7968 5.66384 27.3312 5.19824 26.757 5.19824C26.1829 5.19824 25.7173 5.66384 25.7173 6.23798V6.88813C25.6388 6.90768 25.5595 6.92931 25.4792 6.95343C24.2704 7.31765 23.3677 8.34929 23.1234 9.64573C22.8992 10.8363 23.2863 11.9888 24.1339 12.6535C24.8467 13.2127 25.8364 13.6877 27.5496 14.2933C28.7654 14.723 28.7387 15.7096 28.6707 16.1138C28.5345 16.9234 27.8538 17.7981 26.6803 17.8059C25.5606 17.8129 25.2106 17.7577 24.3463 17.1923C23.8658 16.8777 23.2215 17.0126 22.907 17.4931C22.5928 17.9736 22.7274 18.618 23.208 18.9324Z" fill="#15677F"/>
<path d="M33.3757 23.9141H19.8591C19.2848 23.9141 18.8193 24.3795 18.8193 24.9538C18.8193 25.5279 19.2848 25.9935 19.8591 25.9935H33.3757C33.9498 25.9935 34.4154 25.5279 34.4154 24.9538C34.4154 24.3795 33.9498 23.9141 33.3757 23.9141Z" fill="#15677F"/>
<path d="M33.3757 29.1123H19.8591C19.2848 29.1123 18.8193 29.5779 18.8193 30.152C18.8193 30.7262 19.2848 31.1918 19.8591 31.1918H33.3757C33.9498 31.1918 34.4154 30.7262 34.4154 30.152C34.4154 29.5779 33.9498 29.1123 33.3757 29.1123Z" fill="#15677F"/>
</svg>
