<svg width="53" height="53" viewBox="0 0 53 53" fill="none" xmlns="http://www.w3.org/2000/svg">
<path d="M52.801 8.16083C42.0412 8.16083 33.7984 5.61452 26.8278 0C19.8581 5.61452 11.6156 8.16083 0.856778 8.16083C0.856778 22.7808 -2.79557 43.7251 26.8278 52.23C56.4532 43.725 52.801 22.7808 52.801 8.16083Z" fill="url(#paint0_linear_128_66439)"/>
<path d="M36.0339 32.2C36.0339 36.48 33.1939 39.4 28.6339 40.04V44.52H24.4339V40.04C21.5139 39.6 18.7539 38.28 16.3939 35.96L19.6739 32.04C21.9139 34.16 24.6339 35.12 26.7939 35.12C28.7939 35.12 30.1139 34.16 30.1139 32.6C30.1139 30.88 28.8339 30.08 25.5539 29.12C21.0339 27.72 17.0339 26.2 17.0339 21.12C17.0339 17.04 19.7139 13.96 24.4339 13.4V8.68H28.6339V13.64C31.1139 14.16 33.6339 15.32 35.4339 16.76L32.2739 20.72C30.0339 19.16 27.8739 18.48 26.1139 18.48C24.0739 18.48 22.9139 19.32 22.9139 20.76C22.9139 22.24 24.2739 23 27.1539 23.92C32.5139 25.52 36.0339 26.92 36.0339 32.2Z" fill="white"/>
<defs>
<linearGradient id="paint0_linear_128_66439" x1="13.7714" y1="13.0575" x2="13.7714" y2="13.0575" gradientUnits="userSpaceOnUse">
<stop stop-color="#15677F"/>
<stop offset="1" stop-color="#0B3440"/>
</linearGradient>
</defs>
</svg>
