<svg width="62" height="60" viewBox="0 0 62 60" fill="none" xmlns="http://www.w3.org/2000/svg">
<path d="M35.2202 14.2965C23.9405 14.2965 14.7965 23.4405 14.7965 34.7202C14.7965 45.9999 23.9405 55.1438 35.2202 55.1438C46.4999 55.1438 55.6438 45.9999 55.6438 34.7202C55.6313 23.4457 46.4947 14.3091 35.2202 14.2965ZM50.5379 35.7414H53.5497C53.3223 39.8999 51.6815 43.8561 48.8991 46.955L46.7736 44.8294C46.3748 44.4306 45.7282 44.4306 45.3294 44.8294C44.9306 45.2282 44.9306 45.8748 45.3294 46.2736L47.455 48.3991C44.356 51.1815 40.3999 52.8222 36.2414 53.0497L36.2414 50.0379C36.2414 49.4739 35.7842 49.0167 35.2202 49.0167C34.6562 49.0167 34.199 49.4739 34.199 50.0379V53.0497C30.0405 52.8223 26.0843 51.1815 22.9854 48.3991L25.111 46.2736C25.5098 45.8748 25.5098 45.2282 25.111 44.8294C24.7122 44.4306 24.0656 44.4306 23.6668 44.8294L21.5413 46.955C18.7589 43.8561 17.1182 39.8999 16.8907 35.7414L19.9025 35.7414C20.4664 35.7414 20.9236 35.2842 20.9236 34.7202C20.9236 34.1562 20.4664 33.699 19.9025 33.699H16.8907C17.1182 29.5405 18.7589 25.5843 21.5413 22.4854L23.6668 24.611C24.0656 25.0098 24.7122 25.0098 25.111 24.611C25.5098 24.2122 25.5098 23.5656 25.111 23.1668L22.9854 21.0413C26.0843 18.2589 30.0405 16.6182 34.199 16.3907V19.4025C34.199 19.9664 34.6562 20.4236 35.2202 20.4236C35.7842 20.4236 36.2414 19.9664 36.2414 19.4025V16.3907C40.3999 16.6182 44.356 18.2589 47.455 21.0412L45.3294 23.1668C44.9306 23.5656 44.9306 24.2122 45.3294 24.611C45.7282 25.0098 46.3748 25.0098 46.7736 24.611L48.8991 22.4854C51.6815 25.5843 53.3222 29.5405 53.5497 33.699L50.5379 33.699C49.9739 33.699 49.5167 34.1562 49.5167 34.7202C49.5167 35.2842 49.9739 35.7414 50.5379 35.7414ZM42.3685 30.6355H37.7263L41.2306 23.9619C41.3965 23.6452 41.3849 23.2649 41.1999 22.959C41.015 22.6531 40.6836 22.4662 40.3261 22.466L33.1778 22.466C32.7658 22.4663 32.3942 22.714 32.2354 23.0943L27.1295 35.3485C26.9981 35.6636 27.0329 36.0236 27.2222 36.3078C27.4116 36.5919 27.7305 36.7626 28.0719 36.7626H32.8268L30.1572 45.66C30.0164 46.1299 30.2296 46.6336 30.665 46.8596C31.1004 47.0856 31.635 46.9701 31.9382 46.5845L43.1713 32.2879C43.413 31.9806 43.4581 31.5621 43.2872 31.2104C43.1163 30.8586 42.7595 30.6354 42.3685 30.6355ZM33.6625 41.0846L35.1773 36.0345C35.27 35.7254 35.2111 35.3905 35.0184 35.1316C34.8256 34.8726 34.5218 34.7201 34.199 34.7202L29.6037 34.7202L33.859 24.5084H38.6368L35.1324 31.182C34.9665 31.4986 34.9782 31.8789 35.1631 32.1848C35.3481 32.4907 35.6795 32.6777 36.0369 32.6778L40.2673 32.6778L33.6625 41.0846ZM0.5 22.466C0.499846 22.1951 0.607385 21.9353 0.798927 21.7437C0.990469 21.5522 1.2503 21.4447 1.52118 21.4448H9.69064C10.2546 21.4448 10.7118 21.902 10.7118 22.466C10.7118 23.03 10.2546 23.4872 9.69064 23.4872H1.52118C1.2503 23.4873 0.99047 23.3798 0.798927 23.1883C0.607385 22.9967 0.499846 22.7369 0.5 22.466ZM7.64827 27.5719C8.21226 27.5719 8.66946 28.0291 8.66946 28.5931C8.66946 29.1571 8.21226 29.6143 7.64827 29.6143H4.58473C4.02075 29.6143 3.56355 29.1571 3.56355 28.5931C3.56355 28.0291 4.02075 27.5719 4.58473 27.5719H7.64827ZM10.7118 46.9744C10.712 47.2453 10.6044 47.5051 10.4129 47.6966C10.2213 47.8882 9.96152 47.9957 9.69064 47.9956H1.52118C0.957199 47.9956 0.5 47.5384 0.5 46.9744C0.5 46.4104 0.957199 45.9532 1.52118 45.9532H9.69064C9.96152 45.953 10.2214 46.0606 10.4129 46.2521C10.6044 46.4437 10.712 46.7035 10.7118 46.9744ZM8.66946 40.8473C8.66961 41.1182 8.56207 41.378 8.37053 41.5695C8.17899 41.7611 7.91916 41.8686 7.64827 41.8685H4.58473C4.02075 41.8685 3.56355 41.4113 3.56355 40.8473C3.56355 40.2833 4.02075 39.8261 4.58473 39.8261H7.64827C7.91916 39.8259 8.17899 39.9335 8.37053 40.125C8.56207 40.3166 8.66961 40.5764 8.66946 40.8473ZM0.5 34.7202C0.499845 34.4493 0.607384 34.1895 0.798926 33.9979C0.990468 33.8064 1.2503 33.6989 1.52118 33.699L7.64827 33.699C8.21226 33.699 8.66946 34.1562 8.66946 34.7202C8.66946 35.2842 8.21226 35.7414 7.64827 35.7414H1.52118C1.2503 35.7415 0.99047 35.634 0.798928 35.4424C0.607385 35.2509 0.499846 34.9911 0.5 34.7202ZM56.2421 18.3813C57.0401 19.1777 58.3322 19.1777 59.1302 18.3813L60.7497 16.7618C61.5466 15.964 61.5466 14.6715 60.7497 13.8738L56.0667 9.19064C55.2685 8.39483 53.9769 8.39483 53.1787 9.19064L51.5591 10.8101C50.7623 11.6079 50.7623 12.9004 51.5591 13.6982L51.6469 13.7859L50.1383 15.2945C46.9701 12.8514 43.2498 11.2251 39.3049 10.5587V8.16946C40.9961 8.16761 42.3666 6.79709 42.3685 5.10591V3.06355C42.3666 1.37236 40.9961 0.00184655 39.3049 2.38419e-07L31.1355 0C29.4443 0.00184512 28.0738 1.37236 28.0719 3.06355L28.0719 5.10591C28.0738 6.7971 29.4443 8.16761 31.1355 8.16946V10.5587C27.1906 11.2251 23.4703 12.8515 20.3021 15.2945L18.7936 13.786L18.8813 13.6982C19.6781 12.9004 19.6781 11.608 18.8813 10.8102L17.2618 9.19064C16.4636 8.39483 15.172 8.39483 14.3738 9.19064L9.69064 13.8737C8.89382 14.6715 8.89382 15.9639 9.69064 16.7617L11.3101 18.3813C12.1081 19.1777 13.4002 19.1777 14.1982 18.3813L14.286 18.2936L15.7945 19.8022C8.04167 29.8805 9.28399 44.2141 18.6552 52.8083C28.0265 61.4025 42.4139 61.4025 51.7851 52.8083C61.1564 44.2141 62.3987 29.8805 54.6458 19.8021L56.1544 18.2936L56.2421 18.3813ZM54.6226 10.6347L59.3057 15.3177L57.6862 16.9372L53.0021 12.2551L54.6226 10.6347ZM30.1143 5.10591V3.06355C30.1147 2.49972 30.5716 2.04274 31.1355 2.04236H39.3049C39.8687 2.04274 40.3257 2.49972 40.3261 3.06355V5.10591C40.3257 5.66974 39.8687 6.12672 39.3049 6.12709H31.1355C30.5716 6.12672 30.1147 5.66974 30.1143 5.10591ZM33.1778 8.16946H37.2626V10.3035C36.5884 10.2476 35.9086 10.2118 35.2202 10.2118C34.5318 10.2118 33.852 10.2476 33.1778 10.3035V8.16946ZM11.1347 15.3177L15.8177 10.6347L17.4372 12.2542L12.7542 16.9372L11.1347 15.3177ZM15.73 16.8495L17.3495 15.23L18.7274 16.6079C18.1628 17.1224 17.623 17.6623 17.1079 18.2274L15.73 16.8495ZM35.2202 57.1862C22.8126 57.1862 12.7542 47.1278 12.7542 34.7202C12.7542 22.3126 22.8126 12.2542 35.2202 12.2542C47.6278 12.2542 57.6862 22.3126 57.6862 34.7202C57.6722 47.122 47.622 57.1722 35.2202 57.1862ZM53.3325 18.2274C52.818 17.6628 52.2781 17.123 51.713 16.6079L53.0909 15.23L54.7104 16.8495L53.3325 18.2274Z" fill="#15677F"/>
</svg>
