<svg xmlns="http://www.w3.org/2000/svg" xmlns:xlink="http://www.w3.org/1999/xlink" width="14" height="14" viewBox="0 0 14 14">
  <defs>
    <clipPath id="tag-currency">
      <rect id="Rectangle_542" data-name="Rectangle 542" width="14" height="14" transform="translate(1275 2694)" fill="#448599" stroke="#707070" stroke-width="1"/>
    </clipPath>
  </defs>
  <g id="tag-currency" data-name="Mask Group 63" transform="translate(-1275 -2694)" clip-path="url(#clip-path)">
    <path id="price" d="M11.266,9.624c-1.533,0-2.734-.841-2.734-1.914S9.732,5.8,11.266,5.8,14,6.637,14,7.71,12.8,9.624,11.266,9.624Zm0-2.734a2.439,2.439,0,0,0-1.257.317.68.68,0,0,0-.384.5.68.68,0,0,0,.384.5,2.648,2.648,0,0,0,2.514,0,.68.68,0,0,0,.384-.5.68.68,0,0,0-.384-.5A2.439,2.439,0,0,0,11.266,6.89Zm2.481,6.349a.547.547,0,0,0-.642-.886,3.445,3.445,0,0,1-3.733,0,.547.547,0,1,0-.642.886,4.3,4.3,0,0,0,2.508.76A4.3,4.3,0,0,0,13.747,13.239Zm0-2.187a.547.547,0,0,0-.642-.886,3.445,3.445,0,0,1-3.733,0,.547.547,0,1,0-.642.886,4.3,4.3,0,0,0,2.508.76A4.3,4.3,0,0,0,13.747,11.052Zm-6.227,2.4a.547.547,0,0,0-.547-.547H3.281a2.19,2.19,0,0,1-2.187-2.187V5.133a2.173,2.173,0,0,1,.641-1.547L3.587,1.734a2.19,2.19,0,0,1,3.092,0l1.84,1.854a2.192,2.192,0,0,1,.561.961.547.547,0,1,0,1.054-.293,3.286,3.286,0,0,0-.84-1.44L7.454.96a3.285,3.285,0,0,0-4.64,0L.961,2.813A3.26,3.26,0,0,0,0,5.133v5.585A3.285,3.285,0,0,0,3.281,14H6.973a.547.547,0,0,0,.547-.547ZM5.141,3.718a.684.684,0,1,0,.684.684A.684.684,0,0,0,5.141,3.718Z" transform="translate(1275 2694)" fill="#448599"/>
  </g>
</svg>
