<svg id="tag" xmlns="http://www.w3.org/2000/svg" width="14.255" height="14.256" viewBox="0 0 14.255 14.256">
  <g id="tag" data-name="Group 12">
    <g id="Group_11" data-name="Group 11" transform="translate(0)">
      <path id="Path_16" data-name="Path 16" d="M7.445,0,.5,6.957a1.673,1.673,0,0,0,0,2.361l4.441,4.448a1.66,1.66,0,0,0,1.181.49h0a1.66,1.66,0,0,0,1.181-.489l6.963-6.956V0Zm5.71,6.349-6.637,6.63a.553.553,0,0,1-.393.163h0a.553.553,0,0,1-.394-.163L1.29,8.531a.558.558,0,0,1,0-.787l6.618-6.63h5.248Z" transform="translate(-0.014)" fill="#15677f"/>
    </g>
  </g>
  <g id="tag" data-name="Group 14" transform="translate(9.577 2.896)">
    <g id="Group_13" data-name="Group 13">
      <circle id="Ellipse_2" data-name="Ellipse 2" cx="0.891" cy="0.891" r="0.891" fill="#15677f"/>
    </g>
  </g>
</svg>
