<svg xmlns="http://www.w3.org/2000/svg" xmlns:xlink="http://www.w3.org/1999/xlink" version="1.1" width="1000" height="1000" viewBox="0 0 1000 1000" xml:space="preserve">
<desc>Created with Fabric.js 3.5.0</desc>
<defs>
</defs>
<rect x="0" y="0" width="100%" height="100%" fill="rgba(255,255,255,0)"/>
<g transform="matrix(1.2428 0 0 1.2428 499.9883 487.153)" id="226358">
<path  style="stroke: none; stroke-width: 1; stroke-dasharray: none; stroke-linecap: butt; stroke-dashoffset: 0; stroke-linejoin: miter; stroke-miterlimit: 4; is-custom-font: none; font-file-url: none; fill: #15677f; fill-rule: nonzero; opacity: 1;" vector-effect="non-scaling-stroke" transform=" translate(-256.05, -256.0065)" d="M 345 39.1 L 472.8 168.4 c 52.4 53 52.4 138.2 0 191.2 L 360.8 472.9 c -9.3 9.4 -24.5 9.5 -33.9 0.2 s -9.5 -24.5 -0.2 -33.9 L 438.6 325.9 c 33.9 -34.3 33.9 -89.4 0 -123.7 L 310.9 72.9 c -9.3 -9.4 -9.2 -24.6 0.2 -33.9 s 24.6 -9.2 33.9 0.2 z M 0 229.5 V 80 C 0 53.5 21.5 32 48 32 H 197.5 c 17 0 33.3 6.7 45.3 18.7 l 168 168 c 25 25 25 65.5 0 90.5 L 277.3 442.7 c -25 25 -65.5 25 -90.5 0 l -168 -168 C 6.7 262.7 0 246.5 0 229.5 z M 144 144 a 32 32 0 1 0 -64 0 a 32 32 0 1 0 64 0 z" stroke-linecap="round"/>
</g>
</svg>