<svg xmlns="http://www.w3.org/2000/svg" xmlns:xlink="http://www.w3.org/1999/xlink" width="14" height="14" viewBox="0 0 14 14">
  <defs>
    <clipPath id="twitter">
      <rect id="Rectangle_111" data-name="Rectangle 111" width="14" height="14" transform="translate(1409 3102)" stroke="#707070" stroke-width="1"/>
    </clipPath>
  </defs>
  <g id="Mask_Group_12123" data-name="Mask Group 12" transform="translate(-1409 -3102)" clip-path="url(#clip-path)">
    <path id="twitter123123" d="M12.562,5.087A5.729,5.729,0,0,0,14,3.6h0a5.994,5.994,0,0,1-1.654.453,2.855,2.855,0,0,0,1.263-1.586,5.743,5.743,0,0,1-1.82.695A2.87,2.87,0,0,0,6.824,5.121a2.955,2.955,0,0,0,.067.655,8.126,8.126,0,0,1-5.916-3,2.87,2.87,0,0,0,.882,3.836,2.837,2.837,0,0,1-1.3-.353v.031a2.884,2.884,0,0,0,2.3,2.82,2.854,2.854,0,0,1-.752.094,2.533,2.533,0,0,1-.543-.049,2.9,2.9,0,0,0,2.682,2A5.769,5.769,0,0,1,.687,12.376,5.428,5.428,0,0,1,0,12.337a8.083,8.083,0,0,0,4.4,1.288,8.113,8.113,0,0,0,8.159-8.538Z" transform="translate(1409 3101.063)"/>
  </g>
</svg>
