<svg width="16" height="16" viewBox="0 0 16 16" fill="none" xmlns="http://www.w3.org/2000/svg">
<path d="M12.8452 3.97583L8.47013 0.6425C8.35138 0.5525 8.18012 0.5 8.00013 0.5C7.82012 0.5 7.64887 0.5525 7.53012 0.6425L3.15508 3.97583C2.99382 4.09917 2.95383 4.27333 3.05632 4.4225C3.15758 4.57083 3.38007 4.66667 3.62508 4.66667H6.12511V10.0833C6.12511 10.3133 6.40509 10.5 6.75011 10.5H9.25013C9.59514 10.5 9.87514 10.3133 9.87514 10.0833V4.66667H12.3752C12.6202 4.66667 12.8426 4.57167 12.9439 4.4225C13.0452 4.27333 13.0077 4.09833 12.8452 3.97583Z" fill="#15677F"/>
<path d="M13.5 8.5V12.7H2.5V8.5H0.5V14.1C0.5 14.8742 0.948 15.5 1.5 15.5H14.5C15.053 15.5 15.5 14.8742 15.5 14.1V8.5H13.5Z" fill="#15677F"/>
</svg>
