<svg width="30" height="31" viewBox="0 0 30 31" fill="none" xmlns="http://www.w3.org/2000/svg">
<path d="M29.9179 5.18744C23.7377 5.18744 19.0032 3.72488 14.9994 0.5C10.9961 3.72488 6.26179 5.18744 0.0820857 5.18744C0.0820857 13.5849 -2.01577 25.615 14.9994 30.5C32.0157 25.6149 29.9179 13.5849 29.9179 5.18744Z" fill="#15677F"/>
<path d="M19.594 16.99C19.594 18.916 18.316 20.23 16.264 20.518V22.534H14.374V20.518C13.06 20.32 11.818 19.726 10.756 18.682L12.232 16.918C13.24 17.872 14.464 18.304 15.436 18.304C16.336 18.304 16.93 17.872 16.93 17.17C16.93 16.396 16.354 16.036 14.878 15.604C12.844 14.974 11.044 14.29 11.044 12.004C11.044 10.168 12.25 8.782 14.374 8.53V6.406H16.264V8.638C17.38 8.872 18.514 9.394 19.324 10.042L17.902 11.824C16.894 11.122 15.922 10.816 15.13 10.816C14.212 10.816 13.69 11.194 13.69 11.842C13.69 12.508 14.302 12.85 15.598 13.264C18.01 13.984 19.594 14.614 19.594 16.99Z" fill="white"/>
</svg>
