<svg width="17" height="14" viewBox="0 0 17 14" fill="none" xmlns="http://www.w3.org/2000/svg">
<path d="M16.2858 2.41467C16.6667 3.89967 16.6667 6.99967 16.6667 6.99967C16.6667 6.99967 16.6667 10.0997 16.2858 11.5847C16.0742 12.4055 15.455 13.0513 14.6708 13.2697C13.2467 13.6663 8.33333 13.6663 8.33333 13.6663C8.33333 13.6663 3.4225 13.6663 1.99583 13.2697C1.20833 13.048 0.59 12.403 0.380833 11.5847C2.48353e-08 10.0997 0 6.99967 0 6.99967C0 6.99967 2.48353e-08 3.89967 0.380833 2.41467C0.5925 1.59384 1.21167 0.948008 1.99583 0.729674C3.4225 0.333008 8.33333 0.333008 8.33333 0.333008C8.33333 0.333008 13.2467 0.333008 14.6708 0.729674C15.4583 0.951341 16.0767 1.59634 16.2858 2.41467ZM6.66667 9.91634L11.6667 6.99967L6.66667 4.08301V9.91634Z" fill="white"/>
</svg>
