<svg width="18" height="18" viewBox="0 0 18 18" fill="none" xmlns="http://www.w3.org/2000/svg">
<path d="M13.8383 11.3641C13.9358 11.4225 14.055 11.4891 14.1908 11.5658C14.785 11.9008 15.6825 12.4075 16.2983 13.01C16.6825 13.3866 17.0483 13.8825 17.115 14.4908C17.185 15.1375 16.9033 15.7441 16.3375 16.2825C15.3608 17.2133 14.19 17.9583 12.6741 17.9583H5.32581C3.81081 17.9583 2.63914 17.2133 1.66247 16.2833C1.09664 15.7441 0.814973 15.1375 0.885807 14.4908C0.952473 13.8825 1.31747 13.3866 1.70247 13.01C2.31747 12.4075 3.21581 11.9016 3.80914 11.5658C3.94497 11.49 4.06497 11.4216 4.16164 11.3641C5.62701 10.4983 7.2979 10.0415 8.99997 10.0415C10.702 10.0415 12.3729 10.4983 13.8383 11.3641Z" fill="white"/>
<path opacity="0.4" d="M4.625 4.41675C4.625 3.25643 5.08594 2.14363 5.90641 1.32316C6.72688 0.502684 7.83968 0.041748 9 0.041748C10.1603 0.041748 11.2731 0.502684 12.0936 1.32316C12.9141 2.14363 13.375 3.25643 13.375 4.41675C13.375 5.57707 12.9141 6.68987 12.0936 7.51034C11.2731 8.33081 10.1603 8.79175 9 8.79175C7.83968 8.79175 6.72688 8.33081 5.90641 7.51034C5.08594 6.68987 4.625 5.57707 4.625 4.41675Z" fill="white"/>
</svg>
