<svg width="18" height="16" viewBox="0 0 18 16" fill="none" xmlns="http://www.w3.org/2000/svg">
<path opacity="0.4" d="M10.7108 0.291504C12.05 0.291504 13.1075 0.291504 13.9491 0.385671C14.8125 0.481504 15.5216 0.683171 16.1316 1.13567C16.5527 1.44866 16.916 1.83276 17.205 2.27067C17.7425 3.084 17.9008 4.069 17.9575 5.37067C17.9841 5.99317 17.46 6.4115 16.9458 6.4115C16.1691 6.4115 15.48 7.08817 15.48 7.99984C15.48 8.9115 16.1691 9.58817 16.9466 9.58817C17.46 9.58817 17.9841 10.0065 17.9575 10.6282C17.9008 11.9307 17.7425 12.9157 17.205 13.7282C16.9133 14.1698 16.5508 14.5532 16.1316 14.8648C15.5216 15.3165 14.8125 15.5182 13.9491 15.6148C13.1075 15.7082 12.05 15.7082 10.7108 15.7082H7.28915C5.94998 15.7082 4.89248 15.7082 4.05082 15.614C3.18748 15.5182 2.47915 15.3165 1.86915 14.864C1.44802 14.551 1.08478 14.1669 0.795815 13.729C0.257482 12.9157 0.0991484 11.9307 0.0424817 10.6282C0.0158151 10.0057 0.539148 9.58817 1.05331 9.58817C1.82998 9.58817 2.51998 8.9115 2.51998 7.99984C2.51998 7.08817 1.82998 6.4115 1.05331 6.4115C0.539148 6.4115 0.0158151 5.994 0.0424817 5.3715C0.0991484 4.069 0.257482 3.084 0.795815 2.2715C1.08665 1.82984 1.44998 1.4465 1.86915 1.13484C2.47915 0.683171 3.18748 0.481504 4.05082 0.384837C4.89248 0.291504 5.95081 0.291504 7.28915 0.291504H10.7108Z" fill="white"/>
<path fill-rule="evenodd" clip-rule="evenodd" d="M11.6725 5.32748C11.8287 5.48376 11.9165 5.69568 11.9165 5.91665C11.9165 6.13762 11.8287 6.34954 11.6725 6.50582L7.50583 10.6725C7.34866 10.8243 7.13816 10.9083 6.91966 10.9064C6.70116 10.9045 6.49215 10.8168 6.33764 10.6623C6.18314 10.5078 6.0955 10.2988 6.0936 10.0803C6.0917 9.86182 6.17569 9.65132 6.32749 9.49415L10.4942 5.32748C10.6504 5.17126 10.8624 5.0835 11.0833 5.0835C11.3043 5.0835 11.5162 5.17126 11.6725 5.32748Z" fill="white"/>
<path fill-rule="evenodd" clip-rule="evenodd" d="M6.08331 5.91634C6.08331 5.69533 6.17111 5.48337 6.32739 5.32709C6.48367 5.17081 6.69563 5.08301 6.91665 5.08301H6.92581C7.14683 5.08301 7.35879 5.17081 7.51507 5.32709C7.67135 5.48337 7.75915 5.69533 7.75915 5.91634C7.75915 6.13735 7.67135 6.34932 7.51507 6.5056C7.35879 6.66188 7.14683 6.74967 6.92581 6.74967H6.91665C6.69563 6.74967 6.48367 6.66188 6.32739 6.5056C6.17111 6.34932 6.08331 6.13735 6.08331 5.91634ZM10.2408 10.083C10.2408 9.86199 10.3286 9.65003 10.4849 9.49375C10.6412 9.33747 10.8531 9.24967 11.0741 9.24967H11.0833C11.3043 9.24967 11.5163 9.33747 11.6726 9.49375C11.8288 9.65003 11.9166 9.86199 11.9166 10.083C11.9166 10.304 11.8288 10.516 11.6726 10.6723C11.5163 10.8285 11.3043 10.9163 11.0833 10.9163H11.0741C10.8531 10.9163 10.6412 10.8285 10.4849 10.6723C10.3286 10.516 10.2408 10.304 10.2408 10.083Z" fill="white"/>
</svg>
