<svg width="20" height="20" viewBox="0 0 20 20" fill="none" xmlns="http://www.w3.org/2000/svg">
<path opacity="0.4" fill-rule="evenodd" clip-rule="evenodd" d="M3.30417 2.56992C2.86417 2.95992 2.5 3.49742 2.5 4.16659V8.32325C2.5 9.10992 2.6275 9.55325 3.29833 9.99242C3.56917 10.1699 3.87333 10.3383 4.20917 10.4958C5.845 11.2666 8.00833 11.6666 10 11.6666C11.9908 11.6666 14.155 11.2658 15.7917 10.4958C16.1267 10.3374 16.4308 10.1699 16.7017 9.99242C17.3725 9.55325 17.5 9.10992 17.5 8.32325V4.16659C17.5 3.49742 17.135 2.95992 16.6958 2.56992C16.2542 2.17909 15.6642 1.86492 15.0067 1.61825C13.685 1.12242 11.915 0.833252 10 0.833252C8.08583 0.833252 6.315 1.12242 4.99333 1.61825C4.335 1.86492 3.745 2.17909 3.30417 2.56992ZM4.41 3.81742C4.1125 4.08075 4.1125 4.25242 4.41 4.51575C4.62917 4.71075 4.9825 4.92075 5.4775 5.11575C6.26917 5.42659 7.07333 5.59075 7.8875 5.69825C8.54167 5.78492 9.2525 5.83325 10 5.83325C11.7675 5.83325 13.3308 5.56325 14.4217 5.15409C14.97 4.94825 15.3558 4.72325 15.59 4.51575C15.8875 4.25242 15.8875 4.08075 15.59 3.81742C15.3567 3.60909 14.97 3.38409 14.4217 3.17909C13.33 2.77075 11.7667 2.49992 10 2.49992C8.23333 2.49992 6.66917 2.76992 5.57833 3.17909C5.03 3.38492 4.64417 3.60992 4.41 3.81742Z" fill="white"/>
<path fill-rule="evenodd" clip-rule="evenodd" d="M5.235 8.85494C5.28278 8.69628 5.39161 8.56308 5.53757 8.48464C5.68352 8.40619 5.85465 8.38891 6.01334 8.4366C6.48334 8.57827 7.01417 8.69494 7.59417 8.78327C7.75724 8.80904 7.90348 8.89829 8.00098 9.03151C8.09847 9.16474 8.13929 9.33114 8.11453 9.49436C8.08976 9.65758 8.00143 9.80438 7.8688 9.90269C7.73618 10.001 7.57004 10.0429 7.40667 10.0191C6.8139 9.93175 6.22801 9.80282 5.65334 9.63327C5.49468 9.58549 5.36148 9.47666 5.28304 9.33071C5.20459 9.18475 5.18731 9.01362 5.235 8.85494Z" fill="white"/>
<path opacity="0.4" d="M2.58167 11.6175C2.6625 11.5692 2.7825 11.6342 3.02333 11.7634C3.17917 11.8484 3.33833 11.9284 3.49917 12.0042C5.50833 12.9492 7.78833 13.3334 10 13.3334C12.1758 13.3334 14.595 12.9009 16.5 12.0042C16.6617 11.9284 16.8208 11.8484 16.9767 11.7634C17.2175 11.6342 17.3375 11.5692 17.4183 11.6175C17.5 11.6659 17.5 11.7984 17.5 12.0634V15.8334C17.5 16.5025 17.135 17.04 16.6958 17.43C16.2542 17.8209 15.6642 18.1342 15.0067 18.3817C13.685 18.8767 11.915 19.1667 10 19.1667C8.08583 19.1667 6.315 18.8767 4.99333 18.3817C4.335 18.1342 3.745 17.8209 3.30417 17.43C2.86417 17.04 2.5 16.5025 2.5 15.8334V12.0634C2.5 11.7984 2.5 11.6659 2.58167 11.6175Z" fill="white"/>
<path fill-rule="evenodd" clip-rule="evenodd" d="M5.235 14.6882C5.28278 14.5295 5.39161 14.3963 5.53757 14.3179C5.68352 14.2394 5.85465 14.2222 6.01334 14.2699C6.48334 14.4115 7.01417 14.5282 7.59417 14.6165C7.75724 14.6423 7.90348 14.7315 8.00098 14.8648C8.09847 14.998 8.13929 15.1644 8.11453 15.3276C8.08976 15.4908 8.00143 15.6376 7.8688 15.7359C7.73618 15.8343 7.57004 15.8761 7.40667 15.8524C6.8139 15.765 6.22801 15.6361 5.65334 15.4665C5.49468 15.4187 5.36148 15.3099 5.28304 15.164C5.20459 15.018 5.18731 14.8469 5.235 14.6882Z" fill="white"/>
</svg>
