<svg width="20" height="20" viewBox="0 0 20 20" fill="none" xmlns="http://www.w3.org/2000/svg">
<path opacity="0.4" d="M1.04169 6.6665C1.04169 6.50074 1.10754 6.34177 1.22475 6.22456C1.34196 6.10735 1.50093 6.0415 1.66669 6.0415H18.3334C18.4991 6.0415 18.6581 6.10735 18.7753 6.22456C18.8925 6.34177 18.9584 6.50074 18.9584 6.6665V11.239C18.9584 12.8807 18.9584 14.1798 18.8167 15.1957C18.6709 16.2415 18.3642 17.079 17.6825 17.7373C17.0034 18.3915 16.1442 18.6832 15.07 18.8223C14.0217 18.9582 12.6784 18.9582 10.9717 18.9582H9.02835C7.32085 18.9582 5.97835 18.9582 4.93002 18.8223C3.85585 18.6832 2.99669 18.3915 2.31752 17.7373C1.63585 17.079 1.32919 16.2415 1.18335 15.1957C1.04169 14.179 1.04169 12.8815 1.04169 11.239V6.6665Z" fill="white"/>
<path fill-rule="evenodd" clip-rule="evenodd" d="M7.5 9.99984C7.5 9.77882 7.5878 9.56686 7.74408 9.41058C7.90036 9.2543 8.11232 9.1665 8.33333 9.1665H11.6667C11.8877 9.1665 12.0996 9.2543 12.2559 9.41058C12.4122 9.56686 12.5 9.77882 12.5 9.99984C12.5 10.2209 12.4122 10.4328 12.2559 10.5891C12.0996 10.7454 11.8877 10.8332 11.6667 10.8332H8.33333C8.11232 10.8332 7.90036 10.7454 7.74408 10.5891C7.5878 10.4328 7.5 10.2209 7.5 9.99984Z" fill="white"/>
<path d="M7.10666 1.0415H12.8933C13.6458 1.0415 14.2758 1.0415 14.7917 1.09567C15.3375 1.15234 15.8308 1.27484 16.2858 1.5665C16.7417 1.85817 17.0492 2.24734 17.3142 2.70817C17.5642 3.14484 17.8058 3.70234 18.0958 4.36817L18.8958 6.20984C18.9482 6.32979 18.9684 6.46137 18.9542 6.5915C18.9358 6.43978 18.8625 6.30003 18.7481 6.19868C18.6337 6.09734 18.4862 6.04142 18.3333 6.0415H17.0583L16.6083 5.00817C16.2983 4.29317 16.09 3.81484 15.8867 3.4615C15.6942 3.12567 15.5425 2.969 15.3825 2.8665C15.2225 2.764 15.0133 2.68984 14.6158 2.64817C14.1983 2.60484 13.6575 2.604 12.85 2.604H10.8333V6.0415H9.16666V2.604H7.14999C6.34249 2.604 5.80166 2.60484 5.38416 2.64817C4.98666 2.68984 4.77749 2.76484 4.61749 2.8665C4.45749 2.969 4.30583 3.12484 4.11249 3.4615C3.90999 3.81484 3.70166 4.29317 3.39083 5.00734L2.94166 6.0415H1.66666C1.51383 6.04142 1.36626 6.09734 1.25186 6.19868C1.13746 6.30003 1.06416 6.43978 1.04582 6.5915C1.03159 6.46137 1.0517 6.32978 1.10416 6.20984L1.90416 4.36817C2.19333 3.7015 2.43583 3.14484 2.68583 2.70817C2.95083 2.24734 3.25833 1.85817 3.71416 1.5665C4.16916 1.27484 4.66249 1.15234 5.20833 1.09567C5.72499 1.0415 6.35416 1.0415 7.10666 1.0415Z" fill="white"/>
</svg>
