<!DOCTYPE svg PUBLIC "-//W3C//DTD SVG 1.1//EN" "http://www.w3.org/Graphics/SVG/1.1/DTD/svg11.dtd">
<!-- Uploaded to: SVG Repo, www.svgrepo.com, Transformed by: SVG Repo Mixer Tools -->
<svg fill="#80969d" height="800px" width="800px" version="1.1" id="Layer_1" xmlns="http://www.w3.org/2000/svg" xmlns:xlink="http://www.w3.org/1999/xlink" viewBox="0 0 512 512" xml:space="preserve">
<g id="SVGRepo_bgCarrier" stroke-width="0"/>
<g id="SVGRepo_tracerCarrier" stroke-linecap="round" stroke-linejoin="round"/>
<g id="SVGRepo_iconCarrier"> <g> <g> <g> <path d="M25.634,157.213l-0.003,0.038h183.84l-0.003-0.038c9.081-0.389,16.328-7.853,16.328-17.029V83.116 c0-9.425-7.641-17.067-17.067-17.067H26.371c-9.425,0-17.067,7.641-17.067,17.067v57.069 C9.304,149.362,16.553,156.825,25.634,157.213z"/> <path d="M483.953,70.051L373.55,162.826v-79.71c0-14.463-16.957-22.386-28.046-13.065L211.66,182.523 c-1.384-4.779-5.786-8.206-10.927-8.206H34.367c-5.869,0-10.775,4.464-11.328,10.306L0.076,427.297 c-0.606,6.419,2.454,12.782,8.243,16.27c2.743,1.653,5.938,2.404,9.141,2.404c16.758,0,438.439,0,477.473,0 c9.425,0,17.067-7.641,17.067-17.067V83.116C512,68.651,495.044,60.731,483.953,70.051z M161.158,327.367 c0,9.425-7.641,17.067-17.067,17.067H91.009c-9.425,0-17.067-7.641-17.067-17.067v-53.082c0-9.425,7.641-17.067,17.067-17.067 h53.082c9.425,0,17.067,7.641,17.067,17.067V327.367z M298.052,317.893h-21.588c-9.425,0-17.067-7.641-17.067-17.067 s7.641-17.067,17.067-17.067h21.588c9.425,0,17.067,7.641,17.067,17.067S307.477,317.893,298.052,317.893z M437.511,317.893 h-21.588c-9.425,0-17.067-7.641-17.067-17.067s7.641-17.067,17.067-17.067h21.588c9.425,0,17.067,7.641,17.067,17.067 S446.938,317.893,437.511,317.893z"/> </g> </g> </g> </g>
</svg>