<svg width="20" height="20" viewBox="0 0 20 20" fill="none" xmlns="http://www.w3.org/2000/svg">
<path opacity="0.4" fill-rule="evenodd" clip-rule="evenodd" d="M17.8917 2.10829C17.4717 1.68746 16.84 1.45329 16.2167 1.30996C15.5717 1.16246 14.8333 1.08912 14.1083 1.05996C12.6567 0.999123 11.1733 1.10662 10.415 1.17662C9.94828 1.22049 9.50692 1.40899 9.15249 1.71579C6.56225 3.93722 4.12139 6.32713 1.84583 8.86996C0.79916 10.0391 0.787494 11.785 1.73083 13.0025C3.25241 14.9774 5.0226 16.7475 6.99749 18.2691C8.21499 19.2116 9.96083 19.2008 11.1308 18.1541C13.6734 15.8785 16.063 13.4377 18.2842 10.8475C18.591 10.4931 18.7795 10.0517 18.8233 9.58496C18.8933 8.82662 19.0008 7.34329 18.94 5.89079C18.9108 5.16579 18.8375 4.42829 18.69 3.78412C18.5467 3.15912 18.3125 2.52829 17.8925 2.10746L17.8917 2.10829ZM14.5833 4.16662C14.9148 4.16662 15.2328 4.29832 15.4672 4.53274C15.7016 4.76716 15.8333 5.0851 15.8333 5.41662C15.8333 5.74814 15.7016 6.06609 15.4672 6.30051C15.2328 6.53493 14.9148 6.66662 14.5833 6.66662C14.2518 6.66662 13.9339 6.53493 13.6994 6.30051C13.465 6.06609 13.3333 5.74814 13.3333 5.41662C13.3333 5.0851 13.465 4.76716 13.6994 4.53274C13.9339 4.29832 14.2518 4.16662 14.5833 4.16662Z" fill="white"/>
<path fill-rule="evenodd" clip-rule="evenodd" d="M12.1083 7.8917C12.2254 8.00888 12.2911 8.16774 12.2911 8.33336C12.2911 8.49899 12.2254 8.65784 12.1083 8.77503L11.9283 8.95503C12.1733 9.42253 12.2291 9.96336 12.0925 10.4617C12.0708 10.5409 12.0336 10.615 11.9833 10.6798C11.9329 10.7447 11.8703 10.7989 11.7989 10.8396C11.7276 10.8802 11.6489 10.9064 11.5675 10.9166C11.486 10.9268 11.4033 10.9209 11.3241 10.8992C11.245 10.8775 11.1708 10.8404 11.106 10.79C11.0412 10.7396 10.9869 10.677 10.9463 10.6056C10.9056 10.5343 10.8795 10.4556 10.8692 10.3742C10.859 10.2927 10.8649 10.21 10.8866 10.1309C10.9244 9.99026 10.9242 9.84217 10.8862 9.70165C10.8481 9.56112 10.7735 9.43319 10.67 9.33086C10.5196 9.17637 10.314 9.08786 10.0984 9.08473C9.88283 9.08161 9.6748 9.16413 9.51998 9.3142C9.30998 9.52253 9.29081 9.64503 9.29414 9.71003C9.29831 9.7967 9.35498 9.99086 9.67998 10.315C10.0958 10.73 10.4266 11.215 10.4666 11.785C10.5083 12.3792 10.2225 12.8909 9.78998 13.3225C9.31748 13.7942 8.75914 14.0117 8.17831 13.9475C7.85219 13.9074 7.53998 13.7916 7.26664 13.6092L7.10831 13.7675C7.0502 13.8255 6.98124 13.8715 6.90535 13.9029C6.82947 13.9342 6.74816 13.9503 6.66605 13.9502C6.58395 13.9502 6.50267 13.9339 6.42685 13.9024C6.35102 13.8709 6.28214 13.8248 6.22414 13.7667C6.16614 13.7086 6.12016 13.6396 6.08881 13.5637C6.05746 13.4879 6.04137 13.4065 6.04144 13.3244C6.04152 13.2423 6.05777 13.1611 6.08926 13.0852C6.12075 13.0094 6.16687 12.9405 6.22498 12.8825L6.39664 12.7117C6.17183 12.3218 6.07124 11.8727 6.10831 11.4242C6.11433 11.3415 6.13673 11.2609 6.17421 11.1869C6.21169 11.113 6.2635 11.0473 6.32663 10.9936C6.38976 10.9398 6.46295 10.8992 6.54192 10.874C6.6209 10.8489 6.7041 10.8397 6.78667 10.847C6.86924 10.8543 6.94953 10.8779 7.02287 10.9165C7.09622 10.9552 7.16115 11.008 7.21388 11.0719C7.26661 11.1359 7.3061 11.2097 7.33003 11.2891C7.35397 11.3684 7.36188 11.4517 7.35331 11.5342C7.33081 11.7909 7.42581 12.0909 7.66331 12.3284C7.91164 12.5759 8.13914 12.6859 8.31498 12.705C8.46248 12.7217 8.65914 12.685 8.90664 12.4384C9.19498 12.1509 9.22664 11.9725 9.21914 11.8717C9.21081 11.745 9.12748 11.5292 8.79664 11.2C8.37664 10.78 8.07414 10.3092 8.04581 9.77753C8.01581 9.22503 8.28831 8.7767 8.63664 8.4292C8.94752 8.12093 9.34872 7.92 9.78177 7.85569C10.2148 7.79138 10.6571 7.86706 11.0441 8.0717L11.225 7.89086C11.3423 7.77393 11.5012 7.70834 11.6668 7.7085C11.8324 7.70865 11.9912 7.77454 12.1083 7.8917Z" fill="white"/>
</svg>
