<!DOCTYPE svg PUBLIC "-//W3C//DTD SVG 1.1//EN" "http://www.w3.org/Graphics/SVG/1.1/DTD/svg11.dtd">
<!-- Uploaded to: SVG Repo, www.svgrepo.com, Transformed by: SVG Repo Mixer Tools -->
<svg fill="#80969d" width="800px" height="800px" viewBox="0 0 52 52" xmlns="http://www.w3.org/2000/svg">
<g id="SVGRepo_bgCarrier" stroke-width="0"/>
<g id="SVGRepo_tracerCarrier" stroke-linecap="round" stroke-linejoin="round"/>
<g id="SVGRepo_iconCarrier">
<path d="M2,4.88A2.88,2.88,0,0,1,4.88,2H47.12A2.88,2.88,0,0,1,50,4.88V47.12A2.88,2.88,0,0,1,47.12,50H4.88A2.88,2.88,0,0,1,2,47.12ZM9.2,22.16a2.39,2.39,0,0,1,2.4-2.4H39.44a2.4,2.4,0,1,1,0,4.8H11.6A2.39,2.39,0,0,1,9.2,22.16Zm8.16,5.28a2.4,2.4,0,1,0,0,4.8H33.68a2.4,2.4,0,0,0,0-4.8Z" fill-rule="evenodd"/>
</g>
</svg>