<svg width="18" height="18" viewBox="0 0 18 18" fill="none" xmlns="http://www.w3.org/2000/svg">
<path opacity="0.4" d="M17.5416 9.04742C17.5416 10.8724 17.5416 12.3074 17.3916 13.4266C17.2366 14.5741 16.9141 15.4841 16.2 16.1991C15.4833 16.9141 14.5741 17.2366 13.4266 17.3908C12.3075 17.5416 10.8733 17.5416 9.04748 17.5416H8.95248C7.12748 17.5416 5.69248 17.5416 4.57331 17.3916C3.42581 17.2366 2.51581 16.9141 1.80081 16.1999C1.08581 15.4832 0.763313 14.5741 0.609146 13.4266C0.458313 12.3074 0.458313 10.8733 0.458313 9.04742V8.95242C0.458313 7.12742 0.458313 5.69242 0.608313 4.57325C0.763313 3.42575 1.08581 2.51575 1.79998 1.80075C2.51665 1.08575 3.42581 0.763252 4.57331 0.609085C5.69248 0.458252 7.12665 0.458252 8.95248 0.458252H9.04748C10.8725 0.458252 12.3075 0.458252 13.4266 0.608252C14.5741 0.763252 15.4841 1.08575 16.1991 1.79992C16.9141 2.51659 17.2366 3.42575 17.3908 4.57325C17.5416 5.69242 17.5416 7.12658 17.5416 8.95242V9.04742Z" fill="white"/>
<path d="M14 6.08334C14 6.30435 13.9122 6.51631 13.7559 6.67259C13.5996 6.82887 13.3876 6.91667 13.1666 6.91667H7.99329C7.80184 7.35534 7.46518 7.71471 7.03993 7.93435C6.61468 8.15399 6.12677 8.22051 5.65824 8.12272C5.18971 8.02494 4.76914 7.76881 4.46724 7.3974C4.16535 7.02599 4.00055 6.56196 4.00055 6.08334C4.00055 5.60471 4.16535 5.14068 4.46724 4.76927C4.76914 4.39787 5.18971 4.14174 5.65824 4.04395C6.12677 3.94616 6.61468 4.01268 7.03993 4.23232C7.46518 4.45197 7.80184 4.81134 7.99329 5.25H13.1666C13.3876 5.25 13.5996 5.3378 13.7559 5.49408C13.9122 5.65036 14 5.86232 14 6.08334Z" fill="white"/>
<path d="M11.9167 9.83325C12.2922 9.83336 12.6608 9.93499 12.9834 10.1274C13.3059 10.3198 13.5704 10.5958 13.749 10.9263C13.9275 11.2567 14.0134 11.6293 13.9976 12.0045C13.9817 12.3797 13.8647 12.7437 13.659 13.0579C13.4532 13.3721 13.1663 13.6249 12.8287 13.7894C12.4911 13.9539 12.1153 14.0241 11.741 13.9925C11.3668 13.961 11.008 13.8288 10.7027 13.6101C10.3974 13.3914 10.1569 13.0941 10.0067 12.7499H4.83333C4.61232 12.7499 4.40036 12.6621 4.24408 12.5058C4.0878 12.3496 4 12.1376 4 11.9166C4 11.6956 4.0878 11.4836 4.24408 11.3273C4.40036 11.171 4.61232 11.0833 4.83333 11.0833H10.0067C10.1689 10.7116 10.436 10.3954 10.7752 10.1734C11.1145 9.95134 11.5112 9.83314 11.9167 9.83325Z" fill="white"/>
</svg>
