<svg width="21" height="23" viewBox="0 0 21 23" fill="none" xmlns="http://www.w3.org/2000/svg">
<path fill-rule="evenodd" clip-rule="evenodd" d="M20.7224 7.33069V18.2749C20.7224 19.0347 20.4202 19.7643 19.8834 20.3021C19.3456 20.8389 18.6159 21.1412 17.8561 21.1412H3.2638C2.50396 21.1412 1.77435 20.8389 1.23652 20.3021C0.69973 19.7643 0.397461 19.0347 0.397461 18.2749V7.33069C0.397461 6.57085 0.69973 5.84124 1.23652 5.30341C1.77435 4.76662 2.50396 4.46436 3.2638 4.46436H17.8561C18.6159 4.46436 19.3456 4.76662 19.8834 5.30341C20.4202 5.84124 20.7224 6.57085 20.7224 7.33069ZM5.34842 15.148C5.34842 15.5795 5.69863 15.9297 6.13015 15.9297C6.56166 15.9297 6.91188 15.5795 6.91188 15.148V13.8451H8.47534V15.148C8.47534 15.5795 8.82555 15.9297 9.25707 15.9297C9.68858 15.9297 10.0388 15.5795 10.0388 15.148V12.0211C10.0388 10.7255 8.98919 9.67587 7.69361 9.67587C6.39802 9.67587 5.34842 10.7255 5.34842 12.0211V15.148ZM8.47534 12.2816H6.91188V12.0211C6.91188 11.5895 7.26209 11.2393 7.69361 11.2393C8.12512 11.2393 8.47534 11.5895 8.47534 12.0211V12.2816ZM11.0811 15.148C11.0811 15.5795 11.4313 15.9297 11.8628 15.9297H13.4263C14.7219 15.9297 15.7715 14.8801 15.7715 13.5845V12.0211C15.7715 10.7255 14.7219 9.67587 13.4263 9.67587H11.8628C11.4313 9.67587 11.0811 10.0261 11.0811 10.4576V15.148ZM12.6446 14.3662V11.2393H13.4263C13.8578 11.2393 14.208 11.5895 14.208 12.0211V13.5845C14.208 14.016 13.8578 14.3662 13.4263 14.3662H12.6446Z" fill="#15677F"/>
<path fill-rule="evenodd" clip-rule="evenodd" d="M6.80741 1.54587C6.54892 1.20087 6.61875 0.709943 6.96375 0.451451C7.30876 0.19296 7.79968 0.262795 8.05818 0.607797L10.5597 3.94317L13.0612 0.607797C13.3197 0.262795 13.8107 0.19296 14.1557 0.451451C14.5007 0.709943 14.5705 1.20087 14.312 1.54587L11.1851 5.71508C11.0371 5.91208 10.8057 6.02777 10.5597 6.02777C10.3137 6.02777 10.0823 5.91208 9.93433 5.71508L6.80741 1.54587Z" fill="#15677F"/>
<path fill-rule="evenodd" clip-rule="evenodd" d="M17.0742 21.9231C17.0742 22.3546 16.724 22.7048 16.2925 22.7048C15.861 22.7048 15.5107 22.3546 15.5107 21.9231V20.3596C15.5107 19.9281 15.861 19.5779 16.2925 19.5779C16.724 19.5779 17.0742 19.9281 17.0742 20.3596V21.9231Z" fill="#15677F"/>
<path fill-rule="evenodd" clip-rule="evenodd" d="M5.60838 21.9231C5.60838 22.3546 5.25817 22.7048 4.82665 22.7048C4.39514 22.7048 4.04492 22.3546 4.04492 21.9231V20.3596C4.04492 19.9281 4.39514 19.5779 4.82665 19.5779C5.25817 19.5779 5.60838 19.9281 5.60838 20.3596V21.9231Z" fill="#15677F"/>
</svg>
