<svg width="25" height="21" viewBox="0 0 25 21" fill="none" xmlns="http://www.w3.org/2000/svg">
<path d="M22.9268 3.22922H17.7333V2.19048C17.7333 1.04476 16.8016 0.113037 15.6559 0.113037H9.4236C8.27788 0.113037 7.34616 1.04472 7.34616 2.19048V3.22916H2.15263C1.00687 3.22922 0.0751953 4.16089 0.0751953 5.3066V8.42272C0.0751953 9.56848 1.00687 10.5001 2.15263 10.5001H10.4623V9.98078C10.4623 9.69371 10.6946 9.46142 10.9817 9.46142H14.0979C14.3849 9.46142 14.6172 9.69371 14.6172 9.98078V10.5001H22.9269C24.0726 10.5001 25.0043 9.56848 25.0043 8.42272V5.3066C25.0043 4.16089 24.0726 3.22922 22.9268 3.22922ZM15.6559 3.22922H9.4236V2.19048H15.6559V3.22922Z" fill="#15677F"/>
<path d="M24.7162 11.0605C24.5392 10.9727 24.3277 10.993 24.1714 11.1117C23.8022 11.3912 23.3721 11.5388 22.9268 11.5388H14.6172V13.0968C14.6172 13.3839 14.3849 13.6162 14.0978 13.6162H10.9817C10.6946 13.6162 10.4623 13.3839 10.4623 13.0968V11.5388H2.15263C1.70732 11.5388 1.27724 11.3912 0.907982 11.1117C0.751251 10.992 0.540278 10.9717 0.363243 11.0605C0.186792 11.1483 0.0751953 11.3282 0.0751953 11.5256V18.8097C0.0751953 19.9554 1.00687 20.8871 2.15263 20.8871H22.9269C24.0726 20.8871 25.0043 19.9555 25.0043 18.8097V11.5256C25.0043 11.3282 24.8927 11.1483 24.7162 11.0605Z" fill="#15677F"/>
</svg>
