<svg width="22" height="21" viewBox="0 0 22 21" fill="none" xmlns="http://www.w3.org/2000/svg">
<path d="M9.19653 9.56778C9.48479 9.68843 9.78379 9.78163 10.0896 9.84612V20.8871C9.90203 20.8387 9.71951 20.7727 9.54446 20.6899L2.58587 17.5933C1.33067 17.0346 0.52182 15.7895 0.521485 14.4156L0.521484 6.69157C0.522407 6.38181 0.565322 6.0736 0.649059 5.77536L9.19653 9.56778ZM14.2299 6.98151L4.77782 2.53963L2.58587 3.51383C2.19056 3.68759 1.83228 3.93563 1.53048 4.24448L9.89239 7.96731C10.5718 8.26882 11.347 8.26882 12.0264 7.96731L14.2299 6.98151ZM20.3883 4.24448C20.0865 3.93563 19.7282 3.68759 19.3329 3.51383L12.3743 0.417265C11.4747 0.0113022 10.4441 0.0113026 9.54446 0.417265L6.8886 1.60022L16.3407 6.04211L20.3883 4.24448ZM21.2697 5.77536L17.1989 7.58459V10.426C17.1989 10.9064 16.8095 11.2958 16.3291 11.2958C15.8487 11.2958 15.4593 10.9064 15.4593 10.426V8.35003L12.7222 9.56778C12.4321 9.68322 12.1335 9.77627 11.8292 9.84612V20.8871C12.0167 20.8387 12.1992 20.7727 12.3743 20.6899L19.3329 17.5933C20.5881 17.0346 21.3969 15.7895 21.3973 14.4156L21.3973 6.69157C21.3963 6.38181 21.3534 6.0736 21.2697 5.77536Z" fill="#15677F"/>
</svg>
