<svg width="25" height="21" viewBox="0 0 25 21" fill="none" xmlns="http://www.w3.org/2000/svg">
<path d="M12.7361 10.2747C15.0276 10.2747 16.8853 8.01842 16.8853 5.23518C16.8853 2.45189 16.2753 0.195557 12.7361 0.195557C9.19684 0.195557 8.58691 2.45189 8.58691 5.23518C8.58698 8.01842 10.4447 10.2747 12.7361 10.2747Z" fill="#15677F"/>
<path d="M20.5639 17.7661C20.4872 12.9175 19.8539 11.5359 15.0082 10.6614C15.0082 10.6614 14.326 11.5305 12.7362 11.5305C11.1463 11.5305 10.4642 10.6614 10.4642 10.6614C5.67139 11.5263 4.99952 12.8875 4.91122 17.6085C4.90404 17.994 4.90072 18.0143 4.89941 17.9695C4.89967 18.0533 4.90003 18.2084 4.90003 18.4789C4.90003 18.4789 6.05371 20.8046 12.7362 20.8046C19.4187 20.8046 20.5725 18.4789 20.5725 18.4789C20.5725 18.3052 20.5727 18.1843 20.5728 18.1021C20.5715 18.1298 20.5688 18.0761 20.5639 17.7661Z" fill="#15677F"/>
<path d="M18.4945 9.37511C20.3557 9.37511 21.8644 7.54258 21.8644 5.28206C21.8644 3.02149 21.369 1.18896 18.4945 1.18896C18.011 1.18896 17.595 1.24098 17.2371 1.3381C17.901 2.56203 17.992 4.04864 17.992 5.23529C17.992 6.57888 17.6278 7.86164 16.957 8.92377C17.4181 9.21167 17.9405 9.37511 18.4945 9.37511Z" fill="#15677F"/>
<path d="M24.8516 15.4593C24.7891 11.5214 24.2749 10.3993 20.3393 9.68896C20.3393 9.68896 19.7852 10.3949 18.494 10.3949C18.4406 10.3949 18.3889 10.3933 18.3379 10.391C19.1584 10.7609 19.9047 11.2759 20.4543 12.0296C21.4046 13.3326 21.623 15.0828 21.6681 17.6542C24.3159 17.131 24.8585 16.0383 24.8585 16.0383C24.8585 15.8959 24.8585 15.7983 24.8588 15.7315C24.8577 15.755 24.8556 15.7129 24.8516 15.4593Z" fill="#15677F"/>
<path d="M6.97813 9.37505C7.53227 9.37505 8.05455 9.21161 8.51577 8.92377C7.84503 7.86164 7.4808 6.57888 7.4808 5.23529C7.4808 4.04858 7.5718 2.56197 8.2356 1.3381C7.87776 1.24099 7.46176 1.18896 6.97813 1.18896C4.10365 1.18896 3.6084 3.02149 3.6084 5.28207C3.6084 7.54251 5.11712 9.37505 6.97813 9.37505Z" fill="#15677F"/>
<path d="M7.13404 10.391C7.0832 10.3933 7.03143 10.3949 6.97791 10.3949C5.68665 10.3949 5.13263 9.68896 5.13263 9.68896C1.19715 10.3993 0.682791 11.5213 0.620463 15.4593C0.616404 15.713 0.614343 15.755 0.613281 15.7315C0.613406 15.7982 0.613531 15.8959 0.613531 16.0383C0.613531 16.0383 1.15624 17.1309 3.80384 17.6541C3.84912 15.0828 4.06745 13.3325 5.01778 12.0295C5.56736 11.276 6.3136 10.7609 7.13404 10.391Z" fill="#15677F"/>
</svg>
