<svg width="21" height="21" viewBox="0 0 21 21" fill="none" xmlns="http://www.w3.org/2000/svg">
<path d="M10.3085 0.195557C4.61326 0.195557 0.00390625 4.80429 0.00390625 10.5001C0.00390625 16.1953 4.61266 20.8046 10.3085 20.8046C16.0037 20.8046 20.613 16.1959 20.613 10.5001C20.613 4.8049 16.0043 0.195557 10.3085 0.195557ZM14.1435 11.2549H12.2148V15.3481C12.2148 15.7274 11.9072 16.035 11.5278 16.035H9.08914C8.70977 16.035 8.40216 15.7275 8.40216 15.3481V11.2549H6.47335C5.90121 11.2549 5.58117 10.5948 5.93172 10.1454L9.76679 5.22947C10.042 4.87683 10.5756 4.87759 10.8501 5.22947L14.6852 10.1454C15.0358 10.5949 14.7157 11.2549 14.1435 11.2549Z" fill="#15677F"/>
</svg>
