<svg width="26" height="21" viewBox="0 0 26 21" fill="none" xmlns="http://www.w3.org/2000/svg">
<path d="M18.3549 20.9751H2.84556C1.50145 20.9751 0.544199 19.6658 0.955866 18.3861L2.58765 13.2874C3.11339 11.6507 4.90389 10.8025 6.50096 11.4225C7.56236 11.8342 8.92631 12.1566 10.5978 12.1566C12.2692 12.1566 13.6332 11.8342 14.6946 11.4225C14.7541 11.3977 14.8186 11.3779 14.8831 11.3581V11.4821C14.8831 14.4133 17.0604 16.8436 19.8826 17.2404L20.2496 18.3861C20.6563 19.6658 19.704 20.9751 18.3549 20.9751Z" fill="#15677F"/>
<ellipse cx="10.6028" cy="5.13847" rx="5.11358" ry="5.11357" fill="#15677F"/>
<path d="M20.696 6.65625C18.0326 6.65625 15.8701 8.81874 15.8701 11.4822C15.8701 14.1456 18.0326 16.3081 20.696 16.3081C23.3595 16.3081 25.522 14.1505 25.522 11.4822C25.522 8.81378 23.3644 6.65625 20.696 6.65625ZM23.672 10.4505L20.3687 13.7538C20.0265 14.096 19.471 14.096 19.1288 13.7538L17.7201 12.3452C17.3779 12.0029 17.3779 11.4474 17.7201 11.1052C18.0624 10.763 18.6179 10.763 18.9601 11.1052L19.7487 11.8938L22.427 9.21056C22.7693 8.86835 23.3247 8.86835 23.667 9.21056C24.0142 9.5528 24.0142 10.1083 23.672 10.4505Z" fill="#15677F"/>
</svg>
