<svg width="24" height="19" viewBox="0 0 24 19" fill="none" xmlns="http://www.w3.org/2000/svg">
<path d="M24 9.2002C24 9.46541 23.8946 9.71977 23.7071 9.9073C23.5196 10.0948 23.2652 10.2002 23 10.2002H1C0.734784 10.2002 0.48043 10.0948 0.292893 9.9073C0.105357 9.71977 0 9.46541 0 9.2002C0 8.93498 0.105357 8.68062 0.292893 8.49309C0.48043 8.30555 0.734784 8.2002 1 8.2002H23C23.2652 8.2002 23.5196 8.30555 23.7071 8.49309C23.8946 8.68062 24 8.93498 24 9.2002ZM1 2.2002H23C23.2652 2.2002 23.5196 2.09484 23.7071 1.9073C23.8946 1.71977 24 1.46541 24 1.2002C24 0.934979 23.8946 0.680625 23.7071 0.493089C23.5196 0.305552 23.2652 0.200195 23 0.200195H1C0.734784 0.200195 0.48043 0.305552 0.292893 0.493089C0.105357 0.680625 0 0.934979 0 1.2002C0 1.46541 0.105357 1.71977 0.292893 1.9073C0.48043 2.09484 0.734784 2.2002 1 2.2002ZM23 16.2002H1C0.734784 16.2002 0.48043 16.3056 0.292893 16.4931C0.105357 16.6806 0 16.935 0 17.2002C0 17.4654 0.105357 17.7198 0.292893 17.9073C0.48043 18.0948 0.734784 18.2002 1 18.2002H23C23.2652 18.2002 23.5196 18.0948 23.7071 17.9073C23.8946 17.7198 24 17.4654 24 17.2002C24 16.935 23.8946 16.6806 23.7071 16.4931C23.5196 16.3056 23.2652 16.2002 23 16.2002Z" fill="#F2F6F7"/>
</svg>
