<svg width="25" height="26" viewBox="0 0 25 26" fill="none" xmlns="http://www.w3.org/2000/svg">
<path d="M10.7203 0.94043H0.824636C0.369437 0.94043 0 1.30987 0 1.76507V11.6607C0 12.1159 0.369437 12.4853 0.824636 12.4853H10.7203C11.1755 12.4853 11.5449 12.1159 11.5449 11.6607V1.76507C11.5449 1.30987 11.1755 0.94043 10.7203 0.94043ZM9.89563 10.8361H1.64927V2.5897H9.89563V10.8361Z" fill="#15677F"/>
<path d="M24.1753 0.94043H14.2797C13.8245 0.94043 13.4551 1.30987 13.4551 1.76507V11.6607C13.4551 12.1159 13.8245 12.4853 14.2797 12.4853H24.1753C24.6306 12.4853 25 12.1159 25 11.6607V1.76507C25 1.30987 24.6306 0.94043 24.1753 0.94043ZM23.3507 10.8361H15.1044V2.5897H23.3507V10.8361Z" fill="#15677F"/>
<path d="M10.7203 14.3955H0.824636C0.369437 14.3955 0 14.7649 0 15.2202V25.1158C0 25.571 0.369437 25.9404 0.824636 25.9404H10.7203C11.1755 25.9404 11.5449 25.571 11.5449 25.1158V15.2202C11.5449 14.7649 11.1755 14.3955 10.7203 14.3955ZM9.89563 24.2911H1.64927V16.0448H9.89563V24.2911Z" fill="#15677F"/>
<path d="M24.1753 14.3955H14.2797C13.8245 14.3955 13.4551 14.7649 13.4551 15.2202V25.1158C13.4551 25.571 13.8245 25.9404 14.2797 25.9404H24.1753C24.6306 25.9404 25 25.571 25 25.1158V15.2202C25 14.7649 24.6306 14.3955 24.1753 14.3955ZM23.3507 24.2911H15.1044V16.0448H23.3507V24.2911Z" fill="#15677F"/>
</svg>
